<?xml version="1.0" encoding="UTF-8" standalone="no"?>
<!-- Created with Inkscape (http://www.inkscape.org/) -->

<svg
   version="1.1"
   id="svg4355"
   width="40"
   height="40"
   viewBox="0 0 40 40"
   sodipodi:docname="blocks.svg"
   inkscape:version="1.1.1 (3bf5ae0, 2021-09-20)"
   xmlns:inkscape="http://www.inkscape.org/namespaces/inkscape"
   xmlns:sodipodi="http://sodipodi.sourceforge.net/DTD/sodipodi-0.dtd"
   xmlns="http://www.w3.org/2000/svg"
   xmlns:svg="http://www.w3.org/2000/svg">
  <defs
     id="defs4359" />
  <sodipodi:namedview
     id="namedview4357"
     pagecolor="#505050"
     bordercolor="#ffffff"
     borderopacity="1"
     inkscape:pageshadow="0"
     inkscape:pageopacity="0"
     inkscape:pagecheckerboard="1"
     showgrid="false"
     inkscape:zoom="12.903801"
     inkscape:cx="17.630464"
     inkscape:cy="31.19236"
     inkscape:window-width="1848"
     inkscape:window-height="1136"
     inkscape:window-x="72"
     inkscape:window-y="27"
     inkscape:window-maximized="1"
     inkscape:current-layer="g4361" />
  <g
     inkscape:groupmode="layer"
     inkscape:label="Image"
     id="g4361">
    <path
       style="fill:#ffffff;stroke-width:0.0439773"
       d="m 19.753691,38.837603 c -0.187325,-0.07788 -3.56499,-1.838429 -3.781273,-1.970923 -0.558266,-0.341989 -0.508166,-1.137232 0.08799,-1.396712 0.357664,-0.155674 0.47048,-0.118674 1.871304,0.613727 l 1.263523,0.660617 0.01147,-2.865313 c 0.0064,-1.575923 -0.0036,-2.880162 -0.02216,-2.898311 -0.03599,-0.03538 -4.245918,-2.196453 -4.370428,-2.243466 -0.06863,-0.02591 -0.07447,0.07619 -0.07537,1.317994 -9.19e-4,1.211567 -0.0092,1.363701 -0.08237,1.522381 -0.101807,0.220526 -0.314954,0.400348 -0.519253,0.438059 -0.596814,0.110168 -1.034434,-0.255017 -1.036803,-0.86519 l -10e-4,-0.250834 -1.850951,-2.46e-4 C 10.034632,30.899222 9.3366419,30.882562 9.2210177,30.850972 8.9950245,30.789235 8.733697,30.532101 8.6709567,30.30973 8.639147,30.196987 8.6219148,29.545651 8.6217548,28.449911 L 8.6214728,26.76362 8.1670476,27.005758 C 7.6063023,27.304548 7.3725659,27.341892 7.043235,27.18531 6.9237231,27.128488 6.1301578,26.71973 5.2797573,26.27696 3.5511207,25.376929 3.5264338,25.358042 3.4883724,24.906435 c -0.025067,-0.297433 0.099111,-0.548017 0.3537337,-0.713817 0.1524873,-0.09929 0.2307891,-0.119467 0.453549,-0.116853 0.2572197,0.0031 0.3141364,0.02688 1.2746029,0.534383 0.552948,0.292176 1.0169365,0.531228 1.0310853,0.531228 0.01415,0 0.020595,-1.2967 0.014327,-2.881555 L 6.604316,19.378252 4.3931217,18.246464 c -1.2161571,-0.622482 -2.217775,-1.131787 -2.2258181,-1.131787 -0.00804,0 -0.0205,0.752335 -0.027681,1.671857 l -0.013062,1.671857 -0.1219691,0.181271 C 1.6275015,21.200105 0.73980243,21.075206 0.55033054,20.435046 0.51942396,20.330621 0.5081998,19.471935 0.51709904,17.892711 L 0.5305384,15.508057 0.66377866,15.321556 C 0.78557099,15.151079 0.89031342,15.090861 1.882968,14.620624 2.4802399,14.337686 3.2980982,13.949892 3.7004306,13.75886 7.133014,12.129021 7.130842,12.129993 7.3801653,12.110343 c 0.2249682,-0.01773 0.2824343,-4.93e-4 0.742597,0.222891 l 0.4987592,0.242112 2.658e-4,-1.667336 C 8.6219612,9.8261155 8.639224,9.1797516 8.6709902,9.0671664 8.7337311,8.8447965 8.9950584,8.5876591 9.2210516,8.5259246 9.3366758,8.4943431 10.034666,8.4776704 11.248339,8.4775106 l 1.850932,-2.625e-4 10e-4,-2.2138813 c 9.2e-4,-2.0658326 0.0065,-2.2258567 0.08362,-2.3929557 0.11197,-0.2425851 0.236724,-0.3499594 0.602583,-0.5186061 0.170686,-0.078681 0.659471,-0.3092127 1.086188,-0.5122957 4.757101,-2.26400132 4.887859,-2.32306985 5.14276,-2.32317411 0.229424,-8.724e-5 0.428607,0.0873726 3.369397,1.47959721 1.719055,0.8138333 3.170193,1.5106623 3.224751,1.5485086 0.05455,0.037847 0.149319,0.1659106 0.210586,0.2845873 l 0.111388,0.2157761 v 2.0649413 c 0,1.7044988 -0.0112,2.0913485 -0.06424,2.2162222 l -0.06424,0.1512802 1.91519,2.625e-4 c 1.260545,1.723e-4 1.975465,0.016712 2.091529,0.048414 0.225993,0.06173 0.487319,0.3188719 0.55006,0.5412418 0.03176,0.1125852 0.04904,0.7589491 0.04919,1.8408436 l 3.07e-4,1.667336 0.498759,-0.242112 c 0.45975,-0.223175 0.51783,-0.240626 0.742597,-0.223132 0.210222,0.01636 0.680658,0.225976 3.412444,1.520499 3.050548,1.445575 3.173606,1.508522 3.302895,1.68948 l 0.134286,0.18796 0.01229,2.113758 c 0.008,1.361599 -0.004,2.173555 -0.03367,2.281808 -0.05718,0.208975 -0.330757,0.461154 -0.56864,0.524182 -0.418417,0.110862 -0.865213,-0.141811 -0.981917,-0.555295 -0.02674,-0.09477 -0.0459,-0.701921 -0.04605,-1.460025 0,-0.713786 -0.0078,-1.297792 -0.01686,-1.297792 -0.0092,0 -1.011632,0.509303 -2.227788,1.131782 l -2.211214,1.131763 -0.0098,2.88156 c -0.0054,1.584857 6.13e-4,2.881559 0.01337,2.881559 0.01282,0 0.595756,-0.299364 1.295521,-0.665255 1.206857,-0.631033 1.284847,-0.665123 1.516143,-0.662674 0.292371,0.0032 0.483677,0.09357 0.649122,0.307001 0.246635,0.318172 0.170569,0.877585 -0.14936,1.098435 -0.109446,0.07556 -2.664698,1.417464 -3.580986,1.880586 -0.48831,0.246807 -0.616942,0.242075 -1.19159,-0.04383 -0.246825,-0.122804 -0.473712,-0.242991 -0.504191,-0.267082 -0.04415,-0.0349 -0.05548,0.301092 -0.05565,1.651942 -2.04e-4,1.102622 -0.01737,1.756431 -0.04919,1.869252 -0.02692,0.09543 -0.122022,0.245411 -0.211338,0.333291 -0.08931,0.08788 -0.241737,0.181457 -0.338722,0.207951 -0.115626,0.03158 -0.813616,0.04825 -2.027288,0.04841 l -1.850951,2.45e-4 -3.06e-4,2.039389 c -2.06e-4,1.285604 -0.01739,2.100156 -0.04665,2.203799 -0.02552,0.09043 -0.111821,0.22784 -0.191777,0.305363 -0.08901,0.08629 -1.362231,0.773749 -3.283371,1.77279 -3.294848,1.713408 -3.356963,1.740878 -3.655809,1.616631 z m 3.442701,-3.323458 2.09479,-1.089576 V 31.57152 c 0,-1.569179 -0.01497,-2.852509 -0.03325,-2.851847 -0.01828,6.56e-4 -1.020795,0.507451 -2.227791,1.126196 l -2.194541,1.124993 -0.01133,2.888425 -0.01134,2.888427 0.144403,-0.072 c 0.07943,-0.0396 1.087058,-0.562306 2.239191,-1.161573 z m -1.093667,-6.997336 c 1.156249,-0.590769 2.116822,-1.087015 2.134607,-1.10277 0.03459,-0.03062 -4.123028,-2.010941 -4.221914,-2.010941 -0.08622,0 -4.256514,1.977161 -4.228481,2.004747 0.01308,0.01286 0.964848,0.507411 2.115045,1.098985 1.150198,0.591576 2.09289,1.077507 2.094872,1.079848 0.002,0.0023 0.949624,-0.4791 2.105871,-1.069869 z m -9.003188,-0.223668 c 1.01e-4,-0.564054 0.02053,-1.064263 0.04721,-1.158849 0.09483,-0.336019 0.18757,-0.387619 3.511906,-1.953911 2.818899,-1.328152 3.160548,-1.478589 3.357931,-1.478589 0.197069,0 0.510591,0.137406 3.039311,1.332037 3.779287,1.785425 3.584423,1.685992 3.73106,1.903863 l 0.122413,0.181892 0.01389,1.082994 0.0139,1.082993 h 1.415882 1.415884 l -6.15e-4,-1.690402 -6.12e-4,-1.690402 -1.894682,-0.984587 C 26.14668,24.023071 25.966526,23.919059 25.84534,23.7495 l -0.133005,-0.186094 v -3.998678 -3.998677 l 0.123991,-0.207548 c 0.137039,-0.22939 0.02463,-0.170192 2.879652,-1.516385 l 1.052936,-0.496477 V 11.718486 10.091329 H 27.705578 25.642243 L 25.506603,9.993177 C 25.169683,9.7493748 25.085524,9.2381758 25.304737,8.7670267 25.405112,8.5512991 25.414683,8.498722 25.368145,8.418763 25.329106,8.3516999 25.306942,7.9199616 25.291168,6.9190826 L 25.269004,5.5135791 23.041212,6.6519311 20.81342,7.790283 v 2.873643 c 0,1.580502 0.01295,2.873642 0.0288,2.873642 0.01584,0 0.597433,-0.297262 1.29244,-0.660582 1.168152,-0.61066 1.28129,-0.66058 1.497116,-0.66058 0.608102,0 0.9873,0.581387 0.733671,1.124857 -0.04478,0.09597 -0.119161,0.206903 -0.165279,0.246513 -0.04612,0.03961 -0.941711,0.519275 -1.990214,1.065917 -1.718732,0.89607 -1.931183,0.995746 -2.158463,1.012697 l -0.252093,0.0188 -3.161636,-1.64627 c -1.738914,-0.905449 -3.20917,-1.688029 -3.267251,-1.739067 -0.23681,-0.208097 -0.269209,-0.36696 -0.270265,-1.325154 l -10e-4,-0.883372 H 11.68062 10.261927 v 1.628031 1.628029 l 1.052935,0.495623 c 2.829453,1.331843 2.742649,1.286159 2.879651,1.51549 l 0.123992,0.207549 v 3.998677 3.998678 L 14.1855,23.749285 c -0.121064,0.169201 -0.302993,0.27425 -2.027403,1.170681 l -1.8944,0.984799 -8.89e-4,1.690402 -8.9e-4,1.690402 h 1.418694 1.418693 l 3.07e-4,-0.99243 z M 26.111364,10.471475 c -2.406751,5.330162 -1.203377,2.665081 0,0 z M 9.6704481,24.404407 c 0.7764009,-0.405325 1.7707439,-0.924126 2.2096539,-1.152893 l 0.798012,-0.415939 0.01147,-2.865236 c 0.009,-2.286786 1.03e-4,-2.860947 -0.04434,-2.843981 -0.03066,0.01169 -1.033307,0.522228 -2.228111,1.134524 l -2.1723739,1.113267 -0.011401,2.883606 c -0.00627,1.585983 -0.00309,2.883606 0.00706,2.883606 0.010152,0 0.6536927,-0.33163 1.4300929,-0.736954 z m 22.1270869,-2.146652 -0.01133,-2.883606 -2.172373,-1.113267 c -1.194805,-0.612296 -2.197455,-1.122832 -2.228112,-1.134524 -0.04449,-0.01697 -0.05343,0.557248 -0.04434,2.84425 l 0.01147,2.865508 2.19454,1.149018 c 1.206999,0.631959 2.209646,1.150638 2.228108,1.152621 0.01846,0.002 0.02844,-1.294017 0.02217,-2.88 z M 9.550621,16.897553 c 1.147103,-0.587278 2.085642,-1.08021 2.085642,-1.095404 0,-0.04445 -4.1777953,-2.007406 -4.2429851,-1.993584 -0.157267,0.03334 -4.2143839,1.979907 -4.1861288,2.008463 0.054367,0.05495 4.1929089,2.167682 4.2265158,2.15765 0.017224,-0.0051 0.9698531,-0.489847 2.1169561,-1.077125 z m 25.117016,0.03948 c 1.129471,-0.577562 2.084728,-1.073232 2.122796,-1.101486 0.05704,-0.04234 -0.29693,-0.224032 -2.012225,-1.032897 -1.14479,-0.539839 -2.108085,-0.987173 -2.140649,-0.994079 -0.06503,-0.01379 -4.242987,1.949076 -4.242987,1.993416 0,0.02124 4.140576,2.170402 4.20453,2.182365 0.0083,0.0015 0.939063,-0.469755 2.068535,-1.047319 z M 19.217402,10.663926 V 7.790283 L 16.989612,6.6519852 14.76182,5.5136868 14.750354,8.3562053 c -0.0065,1.61952 0.0055,2.8592207 0.02805,2.8813407 0.04859,0.04782 4.359406,2.297118 4.405693,2.298808 0.01828,6.57e-4 0.03325,-1.291926 0.03325,-2.872428 z m 2.931041,-5.3602512 c 1.16375,-0.593822 2.102555,-1.0929368 2.08623,-1.1091445 -0.01633,-0.016207 -0.972333,-0.475129 -2.124466,-1.0198254 L 20.015418,2.1843483 17.920629,3.1747049 c -1.152133,0.5446964 -2.108129,1.0036176 -2.124432,1.0198254 -0.02359,0.02345 4.144261,2.1864055 4.216694,2.1883054 0.0108,3.037e-4 0.971801,-0.485339 2.135552,-1.0791609 z"
       id="path5735"
       sodipodi:nodetypes="cssscsssssssccssccssssssssscssscssscsssssccssccsssscssscssccssccsssscscsscsccssssssssscssscccsscccscssscccssssssssscssssscccccccsscccsscccccsssscccsssssssscssscccccsscccsscccccccccsscscscsssscssscssssssssssssssssscccssssssscsscs" />
  </g>
</svg>
