<?xml version="1.0" encoding="UTF-8" standalone="no"?>
<!-- Created with Inkscape (http://www.inkscape.org/) -->

<svg
   width="210mm"
   height="297mm"
   viewBox="0 0 210 297"
   version="1.1"
   id="svg5"
   inkscape:version="1.1.1 (3bf5ae0, 2021-09-20)"
   sodipodi:docname="cloud.svg"
   xmlns:inkscape="http://www.inkscape.org/namespaces/inkscape"
   xmlns:sodipodi="http://sodipodi.sourceforge.net/DTD/sodipodi-0.dtd"
   xmlns="http://www.w3.org/2000/svg"
   xmlns:svg="http://www.w3.org/2000/svg">
  <sodipodi:namedview
     id="namedview7"
     pagecolor="#505050"
     bordercolor="#ffffff"
     borderopacity="1"
     inkscape:pageshadow="0"
     inkscape:pageopacity="0"
     inkscape:pagecheckerboard="1"
     inkscape:document-units="mm"
     showgrid="false"
     inkscape:zoom="0.45291836"
     inkscape:cx="396.31866"
     inkscape:cy="561.91142"
     inkscape:window-width="1848"
     inkscape:window-height="1136"
     inkscape:window-x="72"
     inkscape:window-y="27"
     inkscape:window-maximized="1"
     inkscape:current-layer="layer1" />
  <defs
     id="defs2" />
  <g
     inkscape:label="Layer 1"
     inkscape:groupmode="layer"
     id="layer1">
    <path
       style="fill:#ffffff;stroke-width:0.264583"
       d="M 44.563055,240.49098 C 34.76065,239.84861 25.121075,235.89934 17.281888,229.31406 10.728712,223.80908 6.2836741,217.22029 2.872051,207.95464 c -0.4854929,-1.31855 -1.3423849,-4.9502 -1.7480039,-7.40833 -0.52176801,-3.16202 -0.58686901,-10.70262 -0.118782,-13.75833 1.13294,-7.39592 3.547471,-13.68045 7.591741,-19.75976 6.5967459,-9.91615 16.3418399,-16.78518 28.0285489,-19.75648 3.163665,-0.80435 5.693185,-1.1399 10.369838,-1.3756 3.972041,-0.20018 3.866983,-0.14265 4.805966,-2.63212 2.494965,-6.61476 6.737135,-13.16275 11.589284,-17.88861 3.816633,-3.71729 6.621793,-5.82612 11.582905,-8.70767 1.784366,-1.0364 2.122308,-1.56017 3.069169,-4.75684 2.254367,-7.6109 7.980725,-16.058831 14.277629,-21.063391 8.798024,-6.99235 18.015304,-10.27402 28.839584,-10.26787 4.25125,0.002 6.74493,0.28792 10.58333,1.21167 14.11479,3.39689 25.86753,13.54447 31.35995,27.076881 1.14269,2.81539 1.0858,2.77813 4.24122,2.77813 2.5341,0 7.70308,0.70688 9.51029,1.30058 0.43656,0.14342 1.62719,0.51923 2.64583,0.83514 2.17322,0.67396 6.81469,2.81043 8.71907,4.01338 5.76315,3.64043 10.62738,8.46892 13.86444,13.76258 4.4205,7.22898 6.37432,14.13401 6.38177,22.55394 0.009,10.16242 -3.45507,19.66034 -9.96377,27.31908 -1.9069,2.24382 -1.89993,2.20793 -1.27118,6.54758 0.52924,3.65285 0.48747,7.3156 -0.13133,11.517 -0.8816,5.98557 -1.87642,9.26435 -4.37281,14.41217 -2.03454,4.19541 -4.17457,7.4179 -7.06777,10.64276 -8.72168,9.72149 -19.80723,15.12117 -32.74904,15.95181 -4.46077,0.2863 -103.963791,0.27587 -108.346875,-0.0113 z M 155.60799,226.60613 c 0.97461,-0.21738 2.16524,-0.39902 2.64584,-0.40365 0.48059,-0.005 1.10492,-0.18322 1.3874,-0.39687 0.28247,-0.21366 0.74035,-0.38847 1.01751,-0.38847 0.27715,0 0.81994,-0.16897 1.2062,-0.37551 0.38625,-0.20653 1.23806,-0.57203 1.89291,-0.81223 1.51816,-0.55686 5.23439,-2.76952 7.2362,-4.30846 1.69275,-1.30134 5.72838,-5.23413 5.72838,-5.5824 0,-0.19582 0.41474,-0.75801 1.38416,-1.87627 0.70611,-0.81453 3.51759,-6.41838 3.79806,-7.5703 0.10362,-0.42558 0.34922,-1.00864 0.5458,-1.29568 0.19657,-0.28704 0.3574,-0.80684 0.3574,-1.15511 0,-0.34827 0.17279,-1.18498 0.38398,-1.85936 0.4234,-1.35201 1.01503,-7.5314 0.80135,-8.36988 -0.0742,-0.29104 -0.23644,-1.77933 -0.36061,-3.30729 -0.12417,-1.52797 -0.34811,-3.13532 -0.49764,-3.57188 -0.14954,-0.43656 -0.54023,-1.62719 -0.86821,-2.64583 -0.5029,-1.5619 -2.42777,-5.76153 -3.51966,-7.6791 -1.44846,-2.54376 -5.05075,-6.33227 -8.47552,-8.91366 -2.23804,-1.68689 -6.73511,-4.17703 -7.54352,-4.17703 -0.27109,0 -0.6411,-0.1786 -0.82226,-0.39688 -0.18116,-0.21828 -0.64222,-0.40109 -1.02458,-0.40625 -0.38237,-0.005 -0.99287,-0.17953 -1.35667,-0.3875 -0.3638,-0.20797 -1.10553,-0.38234 -1.64829,-0.3875 -0.54276,-0.005 -1.45157,-0.19533 -2.01958,-0.4226 -0.85639,-0.34266 -1.88517,-0.38977 -6.02463,-0.27587 -2.74553,0.0755 -5.79398,0.21206 -6.77432,0.30336 -4.28642,0.39919 -7.11606,-2.10443 -7.87789,-6.97024 -0.1208,-0.77157 -0.34815,-1.55771 -0.50522,-1.74697 -0.15707,-0.18925 -0.31839,-0.68906 -0.35847,-1.11068 -0.0834,-0.87729 -0.91362,-3.16068 -1.43044,-3.93431 -0.19176,-0.28704 -0.34866,-0.66102 -0.34866,-0.83108 0,-0.42574 -2.52968,-4.65136 -3.94184,-6.58452 -1.57453,-2.15543 -6.07114,-6.48237 -8.20464,-7.89505 -4.09175,-2.70932 -8.13844,-4.67334 -10.73998,-5.21254 -0.58208,-0.12065 -1.53458,-0.3398 -2.11666,-0.48702 -0.58209,-0.14721 -2.14105,-0.46507 -3.46437,-0.70635 -3.91849,-0.71445 -11.301592,-0.21002 -14.924174,1.01967 -0.654844,0.22229 -1.666875,0.54775 -2.248959,0.72324 -0.582083,0.1755 -1.713177,0.61547 -2.513541,0.97772 -0.800365,0.36224 -1.747277,0.77077 -2.10425,0.90783 -0.800849,0.3075 -5.722374,3.53705 -6.627,4.3487 -2.022687,1.8148 -2.837813,2.63102 -4.63241,4.63866 -1.088631,1.21787 -1.979967,2.31074 -1.98075,2.42861 -7.94e-4,0.11787 -0.424069,0.76784 -0.940639,1.44437 -1.730221,2.266 -4.320249,8.20626 -4.929515,11.30591 -0.464415,2.36271 -1.193245,4.13727 -2.187977,5.32728 -1.24949,1.49479 -1.783628,1.83178 -3.689504,2.3277 -1.388533,0.3613 -1.766112,0.3628 -3.439583,0.0137 -2.601346,-0.54271 -9.994585,-0.53998 -11.537122,0.004 -0.618675,0.21828 -1.496848,0.39938 -1.951495,0.40245 -0.454647,0.003 -1.660067,0.30876 -2.678713,0.67932 -1.018646,0.37055 -2.175735,0.77537 -2.571308,0.89959 -0.395571,0.12421 -0.98761,0.41384 -1.315641,0.6436 -0.32803,0.22976 -0.756835,0.41775 -0.952897,0.41775 -0.196064,0 -0.85418,0.33714 -1.462481,0.7492 -0.608304,0.41206 -1.2846,0.82814 -1.502881,0.92462 -1.758159,0.77707 -6.518233,5.0079 -8.237936,7.32201 -0.702923,0.94588 -1.372903,1.83885 -1.488845,1.98437 -0.374562,0.47012 -1.949704,3.10232 -2.199931,3.67628 -0.133572,0.30638 -0.34529,0.73564 -0.470486,0.95393 -0.706017,1.23096 -1.096552,2.11393 -1.096552,2.47924 0,0.22727 -0.171523,0.80421 -0.381163,1.28209 -1.118808,2.55036 -1.49291,4.58734 -1.641629,8.93867 -0.149372,4.37039 0.180376,9.29466 0.661396,9.87692 0.14064,0.17025 0.34393,0.78578 0.451755,1.36787 0.107824,0.58208 0.534789,1.89177 0.948811,2.91041 0.414021,1.01865 0.753174,1.98634 0.753673,2.15042 5.03e-4,0.16408 0.179501,0.44655 0.397782,0.62771 0.218281,0.18116 0.396875,0.49461 0.396875,0.69657 0,0.20195 0.440323,0.99105 0.978495,1.75354 0.538172,0.76249 1.416037,2.04119 1.95081,2.84155 1.283088,1.92033 4.320043,4.95354 6.83491,6.82648 2.552972,1.90132 2.707164,1.99773 4.787868,2.99361 3.17735,1.52075 4.560335,2.08611 5.126151,2.09554 0.309314,0.005 0.860047,0.17953 1.223849,0.3875 0.363802,0.20797 1.056238,0.38234 1.538748,0.3875 0.48251,0.005 1.137354,0.1489 1.455208,0.31942 0.317855,0.17053 1.947138,0.37889 3.620627,0.46302 1.67349,0.0841 26.736146,0.12247 55.694794,0.0852 45.56517,-0.0587 52.89059,-0.12098 54.4241,-0.46302 z m 36.28259,-59.33117 c 0.35415,-0.69123 0.83593,-1.61396 1.07062,-2.05052 0.2347,-0.43656 0.43124,-1.03188 0.43676,-1.32292 0.006,-0.29104 0.18486,-0.76028 0.39851,-1.04276 0.21365,-0.28247 0.38846,-0.84386 0.38846,-1.24752 0,-0.40366 0.18745,-1.28606 0.41656,-1.96089 0.59093,-1.74054 0.58957,-9.54231 -0.002,-11.19407 -0.22814,-0.63676 -0.41471,-1.53674 -0.41471,-1.99995 0,-0.46322 -0.17481,-1.07333 -0.38846,-1.3558 -0.21365,-0.28248 -0.39225,-0.69395 -0.39688,-0.91438 -0.005,-0.22044 -0.24654,-0.84509 -0.53758,-1.38811 -0.29104,-0.54302 -0.52917,-1.1193 -0.52917,-1.28062 0,-0.16133 -0.35718,-0.82257 -0.79375,-1.46944 -0.43656,-0.64686 -0.79374,-1.30184 -0.79374,-1.4555 0,-0.64272 -3.10123,-4.23636 -5.38351,-6.23829 -3.03129,-2.65893 -7.65164,-5.31152 -10.49149,-6.02327 -0.36381,-0.0912 -0.89959,-0.26292 -1.19063,-0.38166 -0.74978,-0.30587 -4.12098,-0.81011 -6.62508,-0.99092 -1.36494,-0.0986 -3.02406,-0.009 -4.6302,0.25084 -4.22092,0.68202 -5.82839,0.35115 -7.90111,-1.6263 -1.43363,-1.36775 -1.62146,-1.74131 -2.27682,-4.52823 -1.2258,-5.21267 -3.00501,-8.93773 -6.31338,-13.21803 -1.29644,-1.6773 -4.60864,-5.03822 -4.9652,-5.03822 -0.0997,0 -0.76276,-0.44649 -1.47342,-0.992191 -0.71066,-0.5457 -1.57899,-1.15714 -1.92963,-1.35875 -1.28134,-0.73674 -4.74261,-2.41156 -4.98385,-2.41156 -0.13646,0 -0.58914,-0.17786 -1.00596,-0.39525 -0.41682,-0.21738 -1.03165,-0.39597 -1.3663,-0.39687 -0.33465,-7.9e-4 -0.92996,-0.16435 -1.32292,-0.36322 -0.97688,-0.4944 -3.7992,-0.78573 -7.59363,-0.78384 -4.83881,0.002 -7.77647,0.44526 -10.39387,1.56685 -0.47788,0.20478 -1.04445,0.37233 -1.25904,0.37233 -0.50841,0 -5.276,2.52518 -6.47105,3.42743 -0.50932,0.38453 -1.25983,0.908681 -1.6678,1.164781 -1.48442,0.93181 -5.205665,4.92883 -6.645755,7.13825 -0.811814,1.2455 -1.475997,2.36013 -1.475963,2.47694 3.7e-5,0.11681 2.827772,0.23593 6.283854,0.2647 4.902064,0.0408 6.538364,0.14261 7.441534,0.46302 0.63676,0.22589 1.56332,0.41071 2.05902,0.41071 0.4957,0 1.32871,0.1786 1.85113,0.39688 0.52242,0.21828 1.17297,0.39687 1.44566,0.39687 0.62176,0 3.5708,0.96229 4.50748,1.47082 0.38625,0.20969 0.83013,0.38126 0.98638,0.38126 0.15626,0 1.17418,0.41672 2.26205,0.92605 1.08787,0.50932 2.03701,0.92604 2.10921,0.92604 0.0722,0 0.66051,0.35719 1.30737,0.79375 0.64687,0.43656 1.28981,0.79375 1.42878,0.79375 0.13896,0 0.77654,0.38556 1.41683,0.8568 0.6403,0.47123 1.60139,1.15584 2.13575,1.52135 0.53436,0.36551 1.84405,1.33841 2.91042,2.162 3.68553,2.84646 9.22277,9.46684 11.58269,13.84839 0.31352,0.58208 0.66798,1.23693 0.7877,1.45521 1.32524,2.41623 2.92991,6.19591 2.92991,6.90117 0,0.87379 1.07136,1.60798 2.11389,1.44862 1.24839,-0.19081 9.46827,0.50202 10.4049,0.87701 0.40965,0.16401 1.12403,0.30242 1.5875,0.30757 0.46347,0.005 1.14033,0.17953 1.50413,0.3875 0.3638,0.20797 0.95911,0.38308 1.32292,0.38913 0.3638,0.006 1.00249,0.18887 1.4193,0.40625 0.41682,0.21739 0.89307,0.39598 1.05834,0.39688 0.16526,7.9e-4 0.61988,0.16827 1.01026,0.37193 0.39038,0.20367 1.06677,0.44872 1.50307,0.54455 0.43631,0.0958 0.93516,0.34517 1.10856,0.5541 0.17339,0.20893 0.49346,0.37987 0.71127,0.37987 0.21781,0 1.08201,0.41672 1.92045,0.92604 0.83843,0.50932 1.60317,0.92604 1.69942,0.92604 0.0962,0 0.3188,0.1207 0.49456,0.26821 0.17575,0.14751 1.21253,0.8612 2.30393,1.58596 1.85462,1.23159 7.42081,5.92452 7.63889,6.44046 0.0541,0.12786 0.7571,0.9342 1.56233,1.79186 0.80524,0.85767 1.8711,2.17745 2.36859,2.93284 0.96767,1.46934 2.43547,3.38484 2.59371,3.38484 0.0529,0 0.3859,-0.56555 0.74005,-1.25677 z"
       id="path21" />
  </g>
</svg>
