<?xml version="1.0" encoding="UTF-8" standalone="no"?>
<!-- Created with Inkscape (http://www.inkscape.org/) -->

<svg
   width="44"
   height="44"
   viewBox="0 0 11.641667 11.641667"
   version="1.1"
   id="svg5"
   inkscape:version="1.1.1 (3bf5ae0, 2021-09-20)"
   sodipodi:docname="database.svg"
   xmlns:inkscape="http://www.inkscape.org/namespaces/inkscape"
   xmlns:sodipodi="http://sodipodi.sourceforge.net/DTD/sodipodi-0.dtd"
   xmlns="http://www.w3.org/2000/svg"
   xmlns:svg="http://www.w3.org/2000/svg">
  <sodipodi:namedview
     id="namedview7"
     pagecolor="#505050"
     bordercolor="#ffffff"
     borderopacity="1"
     inkscape:pageshadow="0"
     inkscape:pageopacity="0"
     inkscape:pagecheckerboard="1"
     inkscape:document-units="mm"
     showgrid="false"
     units="px"
     inkscape:zoom="7.2466938"
     inkscape:cx="27.253808"
     inkscape:cy="23.941953"
     inkscape:window-width="1848"
     inkscape:window-height="1136"
     inkscape:window-x="72"
     inkscape:window-y="27"
     inkscape:window-maximized="1"
     inkscape:current-layer="layer1" />
  <defs
     id="defs2" />
  <g
     inkscape:label="Layer 1"
     inkscape:groupmode="layer"
     id="layer1">
    <path
       style="fill:#000000;stroke-width:0.264583"
       id="path21"
       d="" />
    <path
       style="fill:#ffffff;stroke:none;stroke-width:0.0116857"
       d="m 2.6897043,4.4440708 c -0.5411424,0 -1.0610041,0.301293 -1.2463421,0.8296862 -0.08509,0.2425841 -0.074145,0.4829477 -0.074145,0.7362007 v 0.9582294 2.3254593 c 0,0.3898358 -0.059017,0.8347116 0.031017,1.2153156 0.1254029,0.530111 0.6208006,0.956243 1.1726123,0.969798 1.8555061,0.04546 3.7179535,1.17e-4 5.5740906,1.17e-4 H 9.046738 c 0.4768827,0 0.9253927,-0.0095 1.285254,-0.37399 0.405237,-0.410496 0.362433,-0.929716 0.362433,-1.4606688 V 6.7111013 c 0,-0.4612239 0.08848,-1.0248031 -0.08418,-1.4607157 C 10.406571,4.7361669 9.9148829,4.4440708 9.3739391,4.4440708 c 0,-0.3910629 0.023418,-0.7910418 -0.013672,-1.1802583 C 9.2942306,2.5708256 9.0203874,1.8881806 8.5642817,1.359051 7.3872723,-0.00642024 5.2449634,-0.18579882 3.8699626,0.99009764 3.5668934,1.2492869 3.3139089,1.5594961 3.1204518,1.9082683 2.6747933,2.7117554 2.6897043,3.5543313 2.6897043,4.4440708 m 0.4323719,0.4323717 c 0,-0.8433588 -0.1004857,-1.7470041 0.2606967,-2.5358024 C 3.5421196,1.9926275 3.7645341,1.6683137 4.0452485,1.4068222 5.0673989,0.45467525 6.6835346,0.37505918 7.7963661,1.2176186 c 0.6734133,0.5098599 1.1077484,1.3414746 1.1447452,2.1864226 0.014771,0.3374837 4.471e-4,0.6788237 4.471e-4,1.016658 0,0.1145785 -0.03882,0.3138785 0.00705,0.4189565 0.02232,0.051102 0.1000416,0.036787 0.1448679,0.036787 0.1354495,0 0.2738669,-0.00826 0.4090006,0.00104 0.3175477,0.021876 0.5866001,0.2376994 0.7094631,0.5248176 0.07234,0.1690458 0.06179,0.3579571 0.06179,0.5375433 v 0.7946293 2.9097455 c 0,0.4649406 0.06551,0.9981016 -0.3973142,1.2800076 C 9.529607,11.135477 9.0277517,11.046502 8.637729,11.046502 H 5.8915929 3.3207335 c -0.3722722,0 -0.8332157,0.08023 -1.1568869,-0.140567 C 1.7872297,10.649027 1.7899035,10.251712 1.7899035,9.8428755 V 8.9430747 6.302101 c 0,-0.3989975 -0.065555,-0.8533619 0.2347663,-1.1683973 C 2.3202835,4.8235879 2.7330233,4.8764425 3.1220762,4.8764425 m 0.9114865,0.035057 c 0.8694179,-0.058943 1.7574278,-0.011686 2.6292881,-0.011686 h 0.8998008 c 0.1497174,0 0.3214275,-0.023068 0.4674291,0.011686 0.064236,-0.2173194 0.011686,-0.5208444 0.011686,-0.7478863 0,-0.28512 0.014373,-0.5714669 -0.038107,-0.853058 C 7.8860659,2.6795146 7.4923737,2.1039108 6.9199368,1.8024074 6.038763,1.3383089 4.956139,1.6534845 4.4045261,2.4691832 4.1197682,2.8902783 4.0218771,3.3592613 4.0218771,3.8597843 v 0.7011436 c 0,0.1108858 -0.019831,0.243963 0.011686,0.3505717 M 4.454249,4.4791277 c 0,-0.4878906 -0.062238,-1.015209 0.1438747,-1.4724012 0.1570794,-0.348445 0.4049102,-0.6433109 0.7442403,-0.8260756 0.5389341,-0.29025 1.2467034,-0.1968811 1.6944304,0.2194579 0.4524711,0.4207679 0.5842862,0.9693076 0.5842862,1.564847 v 0.3739434 c 0,0.034823 0.012539,0.1034537 -0.018733,0.1282157 -0.044826,0.035501 -0.1716867,0.012014 -0.2266681,0.012014 H 6.7797081 4.4542488 m 1.53083,1.5708419 C 5.7924162,6.074978 5.6167448,6.1109817 5.4475354,6.2140381 5.0107465,6.4800636 4.8159805,7.0361055 4.9810296,7.517417 c 0.050366,0.1469013 0.1338367,0.2810418 0.2361685,0.3972679 0.05081,0.057704 0.1458029,0.1054637 0.1584936,0.1870184 0.081671,0.5250863 -0.2485905,1.411729 0.4457868,1.6337344 0.081029,0.025896 0.1718738,0.044149 0.2570861,0.033982 0.084593,-0.010072 0.1685665,-0.026141 0.2454002,-0.064552 C 6.9244008,9.40465 6.6187138,8.6101259 6.6996375,8.0900177 6.7124559,8.0076683 6.8156533,7.9524299 6.8660072,7.8913602 6.9691219,7.7663113 7.0514128,7.6273331 7.0962744,7.4706743 7.2887266,6.7986867 6.7414373,5.9518338 5.9850788,6.0499705 m 0,0.4307592 C 6.5185556,6.4169607 6.864149,7.0361872 6.630306,7.4823599 6.582734,7.5731459 6.512701,7.6519783 6.4291363,7.7109444 6.3678793,7.7541704 6.2736695,7.7828584 6.2662256,7.8680005 6.2347096,8.2280727 6.2655443,8.604844 6.2655443,8.9664469 c 0,0.1525221 -0.00256,0.3473581 -0.1986572,0.3717814 C 5.8483173,9.3654444 5.7981154,9.1742659 5.7981154,9.0015041 V 8.2302464 c 0,-0.1203982 0.017015,-0.2550061 -0.00172,-0.3738966 C 5.7849266,7.7836297 5.700346,7.7558993 5.646206,7.7190427 5.5647331,7.6635704 5.4958457,7.5911306 5.4461113,7.5057314 5.1873193,7.0613584 5.4941512,6.5394038 5.985092,6.4807297 Z"
       id="path375" />
  </g>
</svg>
