<?xml version="1.0" encoding="UTF-8" standalone="no"?>
<!-- Created with Inkscape (http://www.inkscape.org/) -->

<svg
   width="44"
   height="44"
   viewBox="0 0 11.641667 11.641667"
   version="1.1"
   id="svg5"
   inkscape:version="1.1.1 (3bf5ae0, 2021-09-20)"
   sodipodi:docname="world.svg"
   xmlns:inkscape="http://www.inkscape.org/namespaces/inkscape"
   xmlns:sodipodi="http://sodipodi.sourceforge.net/DTD/sodipodi-0.dtd"
   xmlns="http://www.w3.org/2000/svg"
   xmlns:svg="http://www.w3.org/2000/svg">
  <sodipodi:namedview
     id="namedview7"
     pagecolor="#505050"
     bordercolor="#ffffff"
     borderopacity="1"
     inkscape:pageshadow="0"
     inkscape:pageopacity="0"
     inkscape:pagecheckerboard="1"
     inkscape:document-units="mm"
     showgrid="false"
     units="px"
     inkscape:zoom="10.248373"
     inkscape:cx="27.370199"
     inkscape:cy="24.345329"
     inkscape:window-width="1848"
     inkscape:window-height="1136"
     inkscape:window-x="72"
     inkscape:window-y="27"
     inkscape:window-maximized="1"
     inkscape:current-layer="layer1" />
  <defs
     id="defs2" />
  <g
     inkscape:label="Layer 1"
     inkscape:groupmode="layer"
     id="layer1">
    <path
       style="fill:#ffffff;stroke:none;stroke-width:0.0189617"
       d="M 5.378993,0.09517763 C 4.3765456,0.22680074 3.4511592,0.43657539 2.5916265,1.011484 0.36640177,2.4998522 -0.54615918,5.4476156 0.4385244,7.9372649 c 0.41031363,1.0374314 1.2035392,1.9681073 2.1151788,2.5972741 1.2669433,0.874343 2.7717993,1.051407 4.266377,0.867289 0.662331,-0.08161 1.3056248,-0.379443 1.877206,-0.707138 C 9.1872553,10.413792 9.6041853,10.035886 9.9871533,9.6248535 11.507633,7.9929362 11.875149,5.4047813 10.947866,3.3864622 10.270385,1.9118545 8.953743,0.7856694 7.4078917,0.31998202 6.7779099,0.13020064 6.0392765,0.00848209 5.378993,0.09517763 M 5.2462608,0.58584169 C 5.3114678,0.57675969 5.446781,0.57165489 5.481329,0.64297369 5.534816,0.7534159 5.49276,0.97034132 5.49276,1.0921 v 1.0808155 c 0,0.1248625 0.044506,0.4760707 -0.114605,0.5098983 -0.5306615,0.1128406 -1.1457395,0.03999 -1.6867543,0.03999 -0.1018054,0 -0.4657746,0.05533 -0.5301306,-0.030395 -0.040518,-0.054022 0.00926,-0.1463469 0.032996,-0.1971453 C 3.2733556,2.3259548 3.3672917,2.1579922 3.4706139,2.0022599 3.8583615,1.417753 4.5014275,0.68957538 5.2462608,0.58584169 M 8.2801294,2.6848803 C 7.7229217,2.7553041 7.1334029,2.7290988 6.5735788,2.7045813 6.422416,2.6979646 6.1217407,2.7642351 5.9955129,2.6661461 5.8993581,2.5914183 5.9478463,2.3195077 5.9478463,2.2108384 c 0,-0.3988361 0.00226,-0.7966521 0.019702,-1.1945856 C 5.9720736,0.913399 5.9548999,0.666006 6.0505998,0.60249002 6.222602,0.48833889 6.6543592,0.76187054 6.8011228,0.84940145 7.3186057,1.1580501 7.7064096,1.6033082 8.0146698,2.1160301 8.1152799,2.2833858 8.2602989,2.4872996 8.2801333,2.6848803 m 1.668627,0 c -0.234177,0.055747 -0.5007403,0.018981 -0.7395054,0.018961 -0.091964,0 -0.2186091,0.021806 -0.3026283,-0.022356 C 8.7497147,2.5990217 8.6542053,2.3211574 8.5698818,2.1729151 8.3329371,1.7563953 7.9513332,1.3780359 7.7681639,0.94040609 7.9479577,0.97245481 8.1211928,1.0948964 8.2801294,1.1810544 8.7532611,1.4375452 9.20635,1.7640861 9.5614833,2.1729151 c 0.133565,0.1537791 0.323846,0.3133416 0.387273,0.5119652 M 3.5586722,1.0352145 C 3.5254514,1.2192546 3.365699,1.380738 3.2581483,1.5282181 3.0829424,1.7685138 2.9242522,2.0232695 2.7860785,2.2866851 2.7168873,2.4186394 2.6361295,2.6467293 2.4965336,2.7167738 2.3089269,2.8109183 1.9776853,2.7712697 1.7762744,2.747169 1.7181949,2.7402317 1.6046883,2.7553798 1.570271,2.6940956 1.5407686,2.6415718 1.5989372,2.5728168 1.6276092,2.5331869 1.7214771,2.4034511 1.8339786,2.2859077 1.9469295,2.1729151 2.3744963,1.7451908 2.9474044,1.180406 3.5586722,1.0352145 m 5.9918891,2.1291119 c 0.182335,-0.021503 0.5528277,-0.063597 0.7172447,0.024422 0.106906,0.057225 0.165004,0.2083705 0.216561,0.3114837 0.155239,0.3104786 0.268705,0.6497218 0.35318,0.9860078 0.05941,0.2364328 0.116747,0.4764307 0.133452,0.7205429 0.0082,0.1199903 0.0088,0.235182 -0.13112,0.2597565 -0.328605,0.057701 -0.691001,0.032537 -1.0238537,0.024383 -0.09889,-0.00242 -0.291707,0.00421 -0.3659041,-0.069928 C 9.3432339,5.3141276 9.3690982,5.0249612 9.359238,4.8844373 9.3317648,4.4923848 9.2484064,4.1110275 9.1632878,3.727774 9.1390917,3.6188588 8.9930123,3.3403298 9.0581647,3.243 9.1292549,3.1367576 9.4373225,3.1776963 9.5505613,3.1643282 m -8.2104054,0.038227 c 0.2433788,-0.03635 0.5124431,-0.00577 0.758467,-0.0057 0.075733,3.82e-5 0.2187798,-0.016402 0.2641172,0.062632 0.041772,0.07283 -0.042569,0.2234063 -0.063522,0.2976409 -0.069722,0.2471467 -0.1142062,0.5051968 -0.1548979,0.7584678 -0.047688,0.2969207 -0.073097,0.5942776 -0.1135046,0.8911983 -0.018431,0.1353491 -0.018298,0.2668289 -0.17871,0.2949677 -0.3015931,0.052941 -0.6238998,0.02738 -0.92910697,0.02738 -0.094992,0 -0.2734975,0.022542 -0.3386612,-0.065098 C 0.49158673,5.339309 0.55262253,5.1013976 0.56225883,4.9602847 0.59302603,4.5097175 0.77943823,4.0228758 0.96362823,3.6140054 1.0409083,3.4424589 1.1333276,3.2334439 1.3401559,3.2025562 M 5.4358784,5.4722495 3.5207485,5.49121 2.4968181,5.453289 c 0,-0.5607347 0.084417,-1.1246365 0.2204674,-1.6686282 0.03688,-0.1475408 0.07689,-0.4650161 0.21969,-0.5493575 0.1063939,-0.062839 0.3120902,-0.038452 0.4320797,-0.038452 h 0.9670453 c 0.2652168,0 0.5312686,-0.00624 0.7963903,2.863e-4 0.071753,0.00172 0.2366794,-0.00468 0.289317,0.049071 0.094183,0.096231 0.033029,0.4476856 0.033029,0.576379 0,0.5507605 -0.01896,1.0998341 -0.01896,1.6496653 m 0.511964,-2.2564392 h 1.8203208 c 0.1958174,0 0.5566958,-0.070556 0.734234,0.011431 0.108366,0.050062 0.1553529,0.3554548 0.1829424,0.4626082 0.1074179,0.417195 0.210247,0.8765979 0.2205247,1.3083559 0.00281,0.1167842 0.068507,0.3254013 -0.017782,0.4249494 -0.087357,0.1007629 -0.462552,0.068055 -0.5889882,0.068055 H 6.5925417 C 6.4653659,5.4911569 6.0323946,5.5243745 5.9483753,5.4202556 5.8676559,5.3202331 5.9288842,4.9735188 5.9288842,4.8465138 c 0,-0.5443139 0.018961,-1.0874528 0.018961,-1.6307047 M 9.0575592,8.43027 c 0,-0.2234819 0.077114,-0.4103498 0.1246922,-0.625735 0.082142,-0.3719528 0.1522427,-0.7573675 0.1782202,-1.1377004 0.011244,-0.1646443 -0.00977,-0.5555209 0.1199897,-0.6728748 0.140089,-0.1266827 0.5546097,-0.066635 0.7337607,-0.066635 0.164871,0 0.619269,-0.075959 0.742197,0.051989 0.110718,0.1152682 0.0084,0.4741367 -0.01792,0.6116659 -0.08588,0.4479696 -0.188309,0.8856233 -0.364236,1.308356 -0.0647,0.1554855 -0.155125,0.3804842 -0.304865,0.472335 -0.101502,0.062273 -0.2800837,0.058021 -0.3964887,0.058575 -0.271778,0.00133 -0.5435738,1.95e-5 -0.815352,1.95e-5 M 0.86611393,5.970654 C 1.1234259,5.940294 1.4034594,5.959184 1.6625044,5.965504 c 0.082053,0.00203 0.233259,-5.01e-4 0.2922183,0.064832 0.074899,0.082977 0.060792,0.2663358 0.071258,0.3710048 0.027912,0.2791915 0.066309,0.5573967 0.1120824,0.8343137 0.051349,0.31063 0.1068111,0.6281998 0.2005956,0.9291217 0.02558,0.082085 0.095965,0.2544281 -0.032576,0.280102 C 2.0480331,8.4963766 1.4728572,8.5505521 1.2454214,8.3979458 0.94168573,8.1941984 0.80640363,7.58714 0.71175833,7.2546469 0.62805973,6.9606085 0.57550363,6.6655651 0.53571813,6.3634486 0.52307833,6.2674639 0.49374273,6.0934721 0.57605543,6.0194457 c 0.0641286,-0.057662 0.2086409,-0.039177 0.2900585,-0.04879 m 4.56976447,0.013561 v 1.725512 c -7.18e-5,0.1919303 0.065761,0.5478026 -0.046566,0.7145138 -0.047768,0.070895 -0.1834355,0.043952 -0.2568173,0.043952 H 4.392989 c -0.3296865,0 -0.6570215,-0.018961 -0.9860066,-0.018961 -0.1303425,0 -0.335944,0.036446 -0.4510224,-0.037695 C 2.8379804,8.335526 2.7957528,8.0831804 2.7596308,7.9562324 2.6325686,7.509874 2.5469378,7.0350741 2.5153097,6.5720297 2.5070615,6.4511491 2.4247676,6.1097633 2.5269521,6.0209657 2.5846903,5.9707945 2.6918617,5.9842385 2.7622854,5.9842151 h 0.5309269 2.14267 m 0.967045,-0.013561 c 0.6085939,-0.071808 1.2640609,-0.00538 1.877206,-0.00538 0.1395579,0 0.5271722,-0.065948 0.6269107,0.049094 0.09094,0.1048961 0.025218,0.3574656 0.016097,0.4818348 C 8.888325,6.9710793 8.7977286,7.4597976 8.6702867,7.918329 8.6329747,8.0525202 8.5775827,8.3992727 8.4110997,8.4274879 8.2142398,8.4608449 7.9868706,8.4302979 7.7871284,8.4302979 H 6.535657 c -0.1180935,0 -0.5258075,0.063295 -0.6036642,-0.030399 -0.088494,-0.1065269 -0.041034,-0.3714597 -0.041034,-0.5005316 0,-0.4492782 0.017556,-0.8980819 0.03718,-1.3462786 0.0057,-0.1303054 -0.046496,-0.4299181 0.039193,-0.5358199 0.062343,-0.077044 0.3403426,-0.035346 0.4355875,-0.04659 m 1.8582433,2.990536 C 8.05139,9.6846977 7.3791225,10.42352 6.7252668,10.775677 c -0.1822409,0.09815 -0.3836514,0.166786 -0.5878115,0.20014 -0.060112,0.0098 -0.1621412,0.03677 -0.2097539,-0.0161 -0.054002,-0.05998 -0.036751,-0.18025 -0.036751,-0.25403 v -0.644696 c 0,-0.2667529 0.00655,-0.5307565 0.018219,-0.79639 0.00382,-0.087072 -0.024594,-0.2366232 0.038436,-0.3082799 0.09058,-0.1029423 0.4431155,-0.051989 0.5690781,-0.051989 h 1.0997771 c 0.2045961,0 0.4533736,-0.023853 0.6446967,0.056881 M 5.0566347,8.9097343 c 0.084949,-0.010011 0.2649134,-0.037149 0.3250416,0.038553 0.071504,0.09001 0.035229,0.2842921 0.035229,0.3921649 0,0.3476241 0.035307,0.7166758 -0.00538,1.0618548 -0.013538,0.114698 0.045451,0.518411 -0.090523,0.545564 C 5.1023327,10.991504 4.8615187,10.880807 4.67742,10.776098 4.2072939,10.508663 3.8101417,10.08796 3.5083097,9.6438211 3.4085144,9.496963 3.3287617,9.3389744 3.2347117,9.1887409 3.201225,9.1352535 3.1349733,9.0554025 3.1800454,8.9899084 c 0.067826,-0.098524 0.3681601,-0.047667 0.4734349,-0.047667 0.4612428,0 0.9454675,0.021504 1.403164,-0.032521 m 4.854188,0.013561 c -0.02207,0.1993248 -0.2268,0.3595317 -0.360271,0.4930027 -0.368994,0.368994 -0.76004,0.6960839 -1.2135471,0.9560669 -0.1570976,0.09007 -0.3994471,0.296618 -0.5878122,0.257481 0.2300438,-0.403771 0.557473,-0.7489297 0.7883511,-1.1566633 0.080435,-0.142061 0.1736509,-0.4419584 0.3154653,-0.5276084 0.091945,-0.055539 0.2345368,-0.041245 0.3372715,-0.041245 0.2402826,0 0.4821004,-0.011166 0.7205424,0.018961 m -6.3331985,1.5927807 -0.018961,0.01896 C 2.9742542,10.412774 2.4768135,9.9073502 2.0614391,9.514313 1.9061941,9.367398 1.675385,9.1870531 1.6056194,8.9801628 c 0.2043993,-0.086257 0.831678,-0.1128415 1.0032054,0.042189 0.218135,0.1971456 0.3308811,0.5663097 0.4947859,0.8110867 0.1468202,0.2192725 0.379442,0.4367435 0.4740229,0.6826205 z"
       id="path41" />
    <path
       style="fill:#000000;stroke-width:0.264583"
       id="path21"
       d="" />
  </g>
</svg>
