<svg width="52" height="52" viewBox="0 0 52 52" fill="none" xmlns="http://www.w3.org/2000/svg">
<g clip-path="url(#clip0_41_504)">
<path d="M51.9998 5.1636C52.003 4.4574 51.7219 3.77961 51.2198 3.28295L48.717 0.780033C48.2226 0.280289 47.5487 -0.00059795 46.8458 9.55776e-07H46.8372C46.1385 0.000428746 45.4693 0.281487 44.9799 0.780033L33.6267 12.1332H11.2669V2.60002C11.2669 1.16402 10.1028 9.55776e-07 8.66684 9.55776e-07H6.93352C3.10617 0.00427885 0.00452204 3.10593 0.000244141 6.93328V45.2839C0.217134 49.082 3.38073 52.0391 7.18489 51.9996H49.3999C50.8358 51.9996 51.9998 50.8356 51.9998 49.3996V14.7333C51.9998 13.2973 50.8358 12.1332 49.3999 12.1332H46.1066L51.2199 7.01995C51.7174 6.53021 51.9983 5.86175 51.9998 5.1636ZM31.0094 21.6665C30.8259 21.6915 30.6416 21.627 30.5136 21.4932C30.3846 21.365 30.3209 21.1852 30.3403 21.0044L30.6688 18.0578C30.6825 17.9962 30.6999 17.9353 30.7208 17.8758L34.1345 21.2896C34.0782 21.3017 34.0271 21.3294 33.9681 21.3364L31.0094 21.6665ZM35.5498 20.2512L31.7572 16.4578L41.2039 7.01131L44.9946 10.8012L35.5498 20.2512ZM42.4259 5.78492L43.7111 4.50052L47.5002 8.2904L46.2158 9.57565L42.4259 5.78492ZM1.73356 6.93328C1.73647 4.06264 4.06288 1.73614 6.93352 1.73332H8.66684C9.14545 1.73332 9.53354 2.12133 9.53354 2.59994V37.2663C9.53354 37.7449 9.14554 38.1329 8.66684 38.1329H6.93352C4.9425 38.1323 3.04773 38.9894 1.73356 40.485V6.93328ZM49.3999 13.8666C49.8785 13.8666 50.2666 14.2546 50.2666 14.7333V49.3996C50.2666 49.8782 49.8786 50.2663 49.3999 50.2663H7.18489C4.32383 50.3144 1.92701 48.1119 1.73356 45.257V45.0663C1.73647 42.1957 4.06288 39.8692 6.93352 39.8663H8.66684C10.1028 39.8663 11.2668 38.7023 11.2668 37.2664V13.8666H31.8933L29.9251 15.8347C29.3756 16.3761 29.03 17.0906 28.9466 17.8575L28.6182 20.8102C28.5912 21.0982 28.6185 21.3886 28.6988 21.6664H13.8668C13.3882 21.6664 13.0001 22.0545 13.0001 22.5331C13.0001 23.0118 13.3881 23.3998 13.8668 23.3998H16.4668V46.7996C16.4668 47.2782 16.8548 47.6663 17.3335 47.6663C17.8122 47.6663 18.2002 47.2783 18.2002 46.7996V34.6664H27.7334V41.5997H21.6668C21.1882 41.5997 20.8002 41.9877 20.8002 42.4663C20.8002 42.9449 21.1882 43.333 21.6668 43.333H39C39.9573 43.333 40.7333 42.557 40.7333 41.5997V28.5998C40.7333 28.1212 40.3453 27.7331 39.8667 27.7331C39.3881 27.7331 39 28.1211 39 28.5998V32.9331H18.2001V23.3999H30.947C31.0315 23.4 31.1161 23.3954 31.2001 23.386L34.1614 23.0489C34.913 22.9636 35.6146 22.6296 36.1547 22.0999L44.3776 13.8666L49.3999 13.8666ZM39 34.6664V41.5997H29.4667V34.6664H39ZM49.9978 5.79099L48.7256 7.0641L44.9366 3.27507L46.2097 2.00197C46.3763 1.83103 46.6045 1.73418 46.8432 1.73332C47.0862 1.73392 47.3188 1.83197 47.4889 2.00548L49.9953 4.50668C50.1696 4.67831 50.2674 4.91291 50.2666 5.15752C50.2658 5.39623 50.169 5.62458 49.9978 5.79099Z" fill="black"/>
</g>
<defs>
<clipPath id="clip0_41_504">
<rect width="52" height="52" fill="white"/>
</clipPath>
</defs>
</svg>
