<svg width="20" height="20" viewBox="0 0 20 20" fill="none" xmlns="http://www.w3.org/2000/svg">
<g clip-path="url(#clip0_11_449)">
<path d="M16.9313 8.85677C17.0791 9.43376 17.1655 10.0354 17.1655 10.6578C17.1655 14.6821 13.8922 17.9553 9.86807 17.9553C5.84404 17.9553 2.56994 14.6821 2.56994 10.6578C2.56994 6.63361 5.84404 3.35955 9.86807 3.35955C10.8937 3.35955 11.8689 3.57474 12.7554 3.95811L13.8403 2.21419C12.6329 1.64377 11.2897 1.31494 9.86807 1.31494C4.71642 1.31494 0.525085 5.50627 0.525085 10.6578C0.525085 15.8089 4.71642 20.0001 9.86807 20.0001C15.019 20.0001 19.2102 15.8089 19.2102 10.6578C19.2102 9.22603 18.8768 7.8737 18.2992 6.65965L16.9313 8.85677Z" fill="#200DF2"/>
<path d="M18.6711 0.257402C17.8724 -0.239248 16.8214 0.00427985 16.3242 0.802951L9.54919 11.69L7.27964 8.45338C6.7399 7.68325 5.67621 7.4968 4.90608 8.03663C4.13611 8.57714 3.94898 9.63929 4.48941 10.4101L8.23855 15.7569C8.55823 16.212 9.07927 16.4823 9.63373 16.4823C9.64901 16.4823 9.66505 16.4823 9.68037 16.4816C10.252 16.4657 10.778 16.1643 11.08 15.6788L19.217 2.60419C19.7148 1.80464 19.4698 0.754375 18.6711 0.257402Z" fill="#200DF2"/>
</g>
<defs>
<clipPath id="clip0_11_449">
<rect width="20" height="20" fill="white"/>
</clipPath>
</defs>
</svg>
