<svg width="38" height="38" viewBox="0 0 38 38" fill="none" xmlns="http://www.w3.org/2000/svg">
<g clip-path="url(#clip0_6_242)">
<path d="M33.0815 27.5404C33.6823 26.8475 34.0131 25.96 34.0131 25.0413C34.0131 22.9354 32.3001 21.2222 30.1944 21.2222C29.0857 21.2222 28.0334 21.7032 27.3073 22.5419C26.7065 23.2353 26.3757 24.1229 26.3757 25.0413C26.3757 27.147 28.0888 28.86 30.1944 28.86C31.3033 28.8599 32.3557 28.3789 33.0815 27.5404ZM27.4899 25.0413C27.4899 24.3909 27.7241 23.7622 28.1494 23.2714C28.1494 23.2713 28.1495 23.2713 28.1496 23.2713C28.6639 22.6771 29.4093 22.3363 30.1944 22.3363C31.6858 22.3363 32.899 23.5498 32.899 25.0414C32.899 25.6919 32.665 26.3203 32.2394 26.8111C31.725 27.4053 30.9797 27.746 30.1944 27.746C28.7032 27.7458 27.4899 26.5326 27.4899 25.0413Z" fill="black"/>
<path d="M35.3403 19.9358C34.0084 18.5932 32.243 17.8294 30.3693 17.7853C28.3957 17.7388 26.5333 18.4716 25.1235 19.8486C23.7132 21.2261 22.9365 23.0702 22.9365 25.0413C22.9365 25.9842 23.1162 26.9038 23.4706 27.7744C23.5865 28.0593 23.9116 28.1962 24.1965 28.0803C24.4815 27.9643 24.6185 27.6393 24.5025 27.3544C24.2026 26.6178 24.0507 25.8396 24.0507 25.0413C24.0507 23.3728 24.7081 21.8117 25.9019 20.6457C27.0954 19.4801 28.6732 18.8591 30.343 18.8992C31.9275 18.9364 33.4213 19.5833 34.5494 20.7205C35.6774 21.8576 36.3125 23.3567 36.3376 24.9416C36.3592 26.3087 35.9411 27.6091 35.1245 28.7077L32.0953 32.8846C31.5495 33.6374 31.1731 34.4798 30.9768 35.3884L30.7501 36.4376C30.6939 36.6974 30.4603 36.8858 30.1946 36.8858C29.9289 36.8858 29.6953 36.6973 29.6392 36.4376L29.4124 35.3884C29.216 34.4798 28.8397 33.6373 28.2938 32.8846L25.6765 29.2757C25.496 29.0267 25.1476 28.9712 24.8985 29.1518C24.6495 29.3325 24.594 29.6807 24.7746 29.9298L27.3919 33.5387C27.8465 34.1655 28.1599 34.867 28.3234 35.6238L28.5501 36.673C28.7162 37.442 29.4078 37.9999 30.1944 37.9999C30.9811 37.9999 31.6727 37.4418 31.8388 36.673L32.0656 35.6238C32.2291 34.8671 32.5424 34.1656 32.997 33.5387L36.0223 29.367C36.9829 28.0749 37.4769 26.5385 37.4514 24.9239C37.4219 23.0497 36.6721 21.2782 35.3403 19.9358Z" fill="black"/>
<path d="M6.46982 9.12401C7.38983 9.12401 8.26309 8.72479 8.86523 8.02921C9.36375 7.45416 9.63836 6.71777 9.63836 5.95547C9.63836 5.49293 9.54017 5.04606 9.34646 4.62717C9.21732 4.34789 8.88623 4.22617 8.60709 4.35531C8.32781 4.48437 8.20616 4.81546 8.33523 5.09468C8.46059 5.36595 8.52427 5.65562 8.52427 5.95547C8.52427 6.44961 8.34636 6.92691 8.02314 7.29964C7.63245 7.75097 7.06631 8.00991 6.46982 8.00991C5.33702 8.00991 4.41544 7.08834 4.41544 5.95554C4.41544 5.46147 4.59334 4.98394 4.91657 4.61099C5.30725 4.15967 5.87339 3.90072 6.46989 3.90072C6.57513 3.90072 6.68075 3.90873 6.78391 3.92447C7.08806 3.97123 7.37224 3.76223 7.41878 3.45808C7.46531 3.154 7.25654 2.86967 6.95239 2.82321C6.79363 2.79894 6.63132 2.78662 6.46982 2.78662C5.5498 2.78662 4.67654 3.18584 4.07426 3.88164C3.5758 4.45699 3.30127 5.19354 3.30127 5.95554C3.30134 7.70257 4.72271 9.12401 6.46982 9.12401Z" fill="black"/>
<path d="M4.13596 12.8243C4.49088 13.3136 4.7355 13.8612 4.86316 14.452L5.0447 15.2922C5.18868 15.9586 5.788 16.4422 6.46984 16.4422C7.15169 16.4422 7.75101 15.9585 7.89499 15.2922L8.07653 14.4521C8.20419 13.8612 8.44889 13.3136 8.80373 12.8244L11.2253 9.48528C12.009 8.43107 12.4122 7.17737 12.3914 5.85984C12.3672 4.33049 11.7555 2.88493 10.6688 1.78961C9.58198 0.694139 8.14147 0.070998 6.61242 0.0349276C5.00217 -0.00329502 3.48247 0.594982 2.332 1.71858C1.18131 2.84247 0.547485 4.34719 0.547485 5.95551C0.547485 7.23786 0.951013 8.45846 1.71057 9.48001L4.13596 12.8243ZM3.11048 2.51554C4.01654 1.63056 5.20508 1.14732 6.46903 1.14732C6.50784 1.14732 6.54711 1.14776 6.58607 1.14873C7.82582 1.1779 8.99484 1.68414 9.87775 2.57417C10.7607 3.46421 11.2577 4.63723 11.2773 5.87743C11.2942 6.94737 10.967 7.96505 10.3272 8.82584L7.90182 12.1701C7.45577 12.7853 7.14813 13.4738 6.98759 14.2166L6.80606 15.0567C6.77206 15.2139 6.63068 15.328 6.46992 15.328C6.30916 15.328 6.1677 15.2139 6.13378 15.0567L5.95224 14.2166C5.79171 13.4739 5.48414 12.7854 5.03794 12.1702L2.60869 8.82057C1.98926 7.98732 1.66181 6.99657 1.66181 5.95551C1.66158 4.64978 2.17622 3.42806 3.11048 2.51554Z" fill="black"/>
<path d="M32.0155 6.38017C31.808 6.60727 31.8238 6.95967 32.051 7.16718C32.1578 7.26485 32.2923 7.31295 32.4266 7.31295C32.5775 7.31295 32.7281 7.25186 32.838 7.13163L32.8476 7.12124C32.8611 7.10677 32.8744 7.09222 32.8867 7.07797C33.3089 6.59102 33.5414 5.96736 33.5414 5.32188C33.5414 3.84226 32.3377 2.63843 30.8583 2.63843C30.0855 2.63843 29.3499 2.97212 28.8402 3.55399C28.6375 3.7854 28.6607 4.13735 28.8921 4.34004C29.1235 4.54281 29.4755 4.51958 29.6783 4.28809C29.9765 3.94772 30.4066 3.75245 30.8583 3.75245C31.7235 3.75245 32.4274 4.45649 32.4274 5.32181C32.4274 5.69921 32.2916 6.06362 32.0444 6.34885L32.0155 6.38017Z" fill="black"/>
<path d="M26.6619 2.99825C26.9117 3.17779 27.2599 3.12064 27.4394 2.87082C28.2525 1.73876 29.5689 1.08118 30.9601 1.11525C32.045 1.14078 33.068 1.58387 33.8407 2.36272C34.6134 3.14165 35.0484 4.16824 35.0656 5.25339C35.0803 6.18966 34.794 7.08036 34.2336 7.83435L33.6578 8.62842C33.4771 8.87742 33.5326 9.22573 33.7816 9.40638C33.8804 9.47807 33.9948 9.51251 34.1081 9.51251C34.2805 9.51251 34.4506 9.43265 34.5595 9.28243L35.1315 8.49363C35.8358 7.54623 36.1982 6.41966 36.1794 5.23573C36.1578 3.86134 35.6079 2.56229 34.6316 1.57808C33.655 0.59379 32.3605 0.0338096 30.9863 0.00145021C29.2265 -0.0395185 27.5625 0.789653 26.5345 2.22089C26.4853 2.28939 26.3392 2.63837 26.5734 2.91884C26.5995 2.94779 26.6289 2.97458 26.6619 2.99825Z" fill="black"/>
<path d="M25.751 33.3585C25.7518 33.2041 25.6894 33.0503 25.5652 32.9396C25.3356 32.7348 24.9834 32.755 24.7787 32.9846C24.4249 33.3814 24.0561 33.745 23.6813 34.0676C22.8952 34.3395 22.0912 34.5466 21.2725 34.6897C21.8937 33.353 22.4266 31.5149 22.8337 29.2894C22.8892 28.9868 22.6886 28.6966 22.386 28.6412C22.0838 28.5859 21.7933 28.7863 21.7379 29.0889C21.2791 31.5972 20.6412 33.6312 19.9296 34.8653C19.4646 34.9058 18.9957 34.9271 18.523 34.9271C18.0485 34.9271 17.5793 34.9049 17.1153 34.8637C16.2947 33.4439 15.6169 31.0692 15.1556 28.164C16.2582 28.2536 17.3843 28.2998 18.523 28.2998C19.5775 28.2998 20.6422 28.2599 21.6873 28.1812C21.994 28.158 22.224 27.8906 22.2009 27.5839C22.1778 27.277 21.9098 27.0476 21.6036 27.0702C20.5863 27.1469 19.5498 27.1857 18.523 27.1857C17.3252 27.1857 16.1434 27.133 14.9904 27.0325C14.6898 24.7821 14.5134 22.2696 14.4912 19.6683H23.5249C23.8325 19.6683 24.0819 19.4189 24.0819 19.1112C24.0819 18.8535 23.9067 18.6373 23.6691 18.5737C23.6489 16.0014 23.4844 13.5351 23.1989 11.3069C25.0581 11.5248 26.8255 11.8711 28.4401 12.331C28.7829 13.5664 29.0333 14.8629 29.1796 16.1848C29.2111 16.4698 29.4524 16.6806 29.7326 16.6806C29.753 16.6806 29.7737 16.6795 29.7946 16.6772C30.1003 16.6433 30.3208 16.368 30.2869 16.0622C30.161 14.9247 29.961 13.8043 29.6938 12.7214C31.2076 13.2356 32.5548 13.8573 33.6768 14.5726C33.9567 15.5083 34.1509 16.4738 34.2531 17.4583C34.2828 17.7448 34.5247 17.9579 34.8065 17.9579C34.8257 17.9579 34.8451 17.9569 34.8647 17.9549C35.1707 17.9231 35.393 17.6493 35.3613 17.3433C34.9315 13.2029 32.9895 9.37592 29.893 6.56741C26.7745 3.73893 22.7366 2.18115 18.523 2.18115C16.8041 2.18115 15.1078 2.4381 13.4814 2.94479C13.1877 3.0363 13.0237 3.34861 13.1152 3.64237C13.2067 3.93605 13.5188 4.09978 13.8128 4.00857C14.4557 3.80825 15.1105 3.65024 15.7737 3.53401C15.035 5.12556 14.4258 7.41773 14.0059 10.1675C13.3714 10.237 12.7434 10.3196 12.1254 10.4186C11.8217 10.4673 11.6149 10.753 11.6636 11.0568C11.7123 11.3607 11.998 11.5671 12.3018 11.5187C12.8104 11.4371 13.3256 11.3661 13.8461 11.3052C13.757 12.0004 13.6794 12.7205 13.6145 13.4622C13.5876 13.7686 13.8143 14.0389 14.1207 14.0657C14.1373 14.0672 14.1537 14.0679 14.17 14.0679C14.4557 14.0679 14.6989 13.8494 14.7243 13.5594C14.7958 12.7433 14.8839 11.9519 14.9862 11.1904C16.1459 11.0894 17.3276 11.0366 18.523 11.0366C19.7208 11.0366 20.9026 11.0893 22.0555 11.1899C22.3562 13.4403 22.5326 15.9527 22.5547 18.5541H14.4921C14.4994 17.6668 14.5233 16.7803 14.5654 15.9116C14.5802 15.6043 14.3433 15.3431 14.036 15.3283C13.7274 15.3142 13.4675 15.5505 13.4526 15.8577C13.4097 16.7443 13.3854 17.6488 13.378 18.554H7.71225C7.71589 18.3923 7.72086 18.2265 7.72762 18.0534C7.73964 17.746 7.50021 17.4871 7.1928 17.475C6.88679 17.4618 6.62636 17.7023 6.61434 18.0098C6.60699 18.1979 6.60149 18.3784 6.59771 18.554H2.71733C2.76862 17.0799 3.02267 15.628 3.47577 14.2304C3.57062 13.9378 3.41024 13.6236 3.11759 13.5288C2.82487 13.4339 2.51078 13.5943 2.41593 13.8869C1.86998 15.5715 1.59314 17.329 1.59314 19.111C1.59314 23.6332 3.35413 27.8847 6.55177 31.0824C9.74948 34.28 14.0009 36.041 18.5231 36.041C21.0776 36.041 23.5332 35.4857 25.8218 34.3906C26.0993 34.2578 26.2166 33.9252 26.0838 33.6477C26.0148 33.504 25.8919 33.4036 25.751 33.3585ZM23.0394 10.1689C22.6237 7.44423 22.019 5.14241 21.2734 3.53624C22.0953 3.68074 22.9018 3.88982 23.6864 4.16049C25.0758 5.35779 26.3051 7.04909 27.2448 9.06101C27.544 9.70174 27.8138 10.3762 28.0528 11.076C26.486 10.6695 24.7993 10.3632 23.0394 10.1689ZM33.0951 12.9548C31.9815 12.3736 30.7181 11.8654 29.3403 11.44C29.0354 10.4417 28.6724 9.48487 28.2542 8.58957C27.6948 7.39175 27.0353 6.29836 26.3013 5.33923C27.3139 5.91191 28.2683 6.59828 29.1444 7.39294C30.8677 8.95591 32.208 10.8563 33.0951 12.9548ZM18.523 9.92276C17.3858 9.92276 16.2598 9.96863 15.1526 10.0578C15.6208 7.13184 16.3102 4.75476 17.1166 3.35782C17.5828 3.31677 18.0519 3.29547 18.523 3.29547C18.9948 3.29547 19.4643 3.31692 19.9303 3.35834C20.7511 4.77821 21.429 7.15336 21.8904 10.059C20.7877 9.96952 19.6618 9.92276 18.523 9.92276ZM15.7729 34.6874C14.9439 34.5415 14.1372 34.3303 13.3578 34.0603C11.4697 32.4337 9.97036 30.0136 8.99164 27.1472C10.5588 27.5537 12.2464 27.8596 14.0065 28.0538C14.4223 30.779 15.0273 33.0811 15.7729 34.6874ZM13.847 26.9157C11.9867 26.6977 10.2184 26.3512 8.60303 25.8908C8.06628 23.9518 7.75686 21.8461 7.71166 19.6684H13.377C13.3979 22.2336 13.5623 24.6931 13.847 26.9157ZM2.718 19.6684H6.59756C6.63816 21.6913 6.89904 23.6589 7.3537 25.5017C5.84075 24.988 4.49428 24.3667 3.37239 23.6521C2.99157 22.3833 2.76602 21.0482 2.718 19.6684ZM3.95589 25.2708C5.06858 25.851 6.33156 26.3579 7.70787 26.7826C8.41755 29.1033 9.44548 31.1837 10.7324 32.871C7.71938 31.1585 5.32033 28.4855 3.95589 25.2708Z" fill="black"/>
</g>
<defs>
<clipPath id="clip0_6_242">
<rect width="38" height="38" fill="white"/>
</clipPath>
</defs>
</svg>
