<svg width="10" height="10" viewBox="0 0 10 10" fill="none" xmlns="http://www.w3.org/2000/svg">
<path d="M9.91447 4.7778L6.91464 1.44464C6.85064 1.37398 6.76131 1.33398 6.66665 1.33398H4.66676C4.53543 1.33398 4.41611 1.41131 4.36211 1.53131C4.30878 1.65197 4.33078 1.79263 4.41877 1.88995L7.21795 5.00045L4.41877 8.11028C4.33078 8.20828 4.30811 8.34894 4.36211 8.46893C4.41611 8.58959 4.53543 8.66692 4.66676 8.66692H6.66665C6.76131 8.66692 6.85064 8.62626 6.91464 8.55693L9.91447 5.22377C10.0285 5.09711 10.0285 4.90379 9.91447 4.7778Z" fill="#434343"/>
<path d="M5.58141 4.7778L2.58157 1.44464C2.51757 1.37398 2.42824 1.33398 2.33358 1.33398H0.33369C0.202364 1.33398 0.083037 1.41131 0.0290399 1.53131C-0.0242905 1.65197 -0.00229169 1.79263 0.0857035 1.88995L2.88489 5.00045L0.0857035 8.11028C-0.00229169 8.20828 -0.0249571 8.34894 0.0290399 8.46893C0.083037 8.58959 0.202364 8.66692 0.33369 8.66692H2.33358C2.42824 8.66692 2.51757 8.62626 2.58157 8.55693L5.58141 5.22377C5.6954 5.09711 5.6954 4.90379 5.58141 4.7778Z" fill="#434343"/>
</svg>
