<svg width="56" height="56" viewBox="0 0 56 56" fill="none" xmlns="http://www.w3.org/2000/svg">
<path d="M49.5597 7.87549C49.5581 6.59962 49.0506 5.37646 48.1484 4.47429C47.2462 3.57211 46.0231 3.06457 44.7472 3.06299H11.2528C9.97694 3.06457 8.75378 3.57211 7.85161 4.47429C6.94943 5.37646 6.44189 6.59962 6.44031 7.87549V48.1255C6.44189 49.4014 6.94943 50.6245 7.85161 51.5267C8.75378 52.4289 9.97694 52.9364 11.2528 52.938H26.0748C26.4198 52.9333 26.7491 52.7929 26.9914 52.5473C27.2337 52.3016 27.3695 51.9705 27.3695 51.6255C27.3695 51.2804 27.2336 50.9493 26.9913 50.7037C26.749 50.458 26.4198 50.3177 26.0748 50.313H11.2528C10.6728 50.3125 10.1167 50.0818 9.70661 49.6717C9.29649 49.2616 9.06584 48.7055 9.06531 48.1255V7.87549C9.06584 7.29549 9.29649 6.73941 9.70661 6.32929C10.1167 5.91917 10.6728 5.68853 11.2528 5.68799H44.7472C45.3272 5.68853 45.8833 5.91917 46.2934 6.32929C46.7035 6.73941 46.9342 7.29549 46.9347 7.87549V29.4523C46.9347 29.8004 47.073 30.1342 47.3191 30.3803C47.5653 30.6265 47.8991 30.7648 48.2472 30.7648C48.5953 30.7648 48.9291 30.6265 49.1753 30.3803C49.4214 30.1342 49.5597 29.8004 49.5597 29.4523V7.87549Z" fill="black"/>
<path d="M41.5625 12.2505C41.5624 11.9024 41.4241 11.5686 41.178 11.3225C40.9319 11.0764 40.5981 10.9381 40.25 10.938H15.75C15.4019 10.938 15.0681 11.0763 14.8219 11.3224C14.5758 11.5686 14.4375 11.9024 14.4375 12.2505C14.4375 12.5986 14.5758 12.9324 14.8219 13.1786C15.0681 13.4247 15.4019 13.563 15.75 13.563H40.25C40.5981 13.5629 40.9319 13.4246 41.178 13.1785C41.4241 12.9323 41.5624 12.5986 41.5625 12.2505Z" fill="black"/>
<path d="M19.25 20.563H36.75C37.0948 20.5579 37.4237 20.4174 37.6658 20.1718C37.9078 19.9262 38.0435 19.5953 38.0434 19.2505C38.0434 18.9056 37.9078 18.5747 37.6657 18.3291C37.4237 18.0835 37.0947 17.943 36.75 17.938H19.25C18.9052 17.943 18.5763 18.0835 18.3343 18.3291C18.0922 18.5747 17.9565 18.9057 17.9565 19.2505C17.9565 19.5953 18.0922 19.9263 18.3343 20.1719C18.5763 20.4175 18.9052 20.558 19.25 20.563Z" fill="black"/>
<path d="M48.2472 42.438C48.5919 42.4329 48.9209 42.2924 49.1629 42.0468C49.405 41.8012 49.5406 41.4703 49.5406 41.1255C49.5406 40.7806 49.4049 40.4497 49.1629 40.2041C48.9208 39.9585 48.5919 39.818 48.2471 39.813H45.9457C45.741 38.5283 45.2357 37.3101 44.4709 36.2577L46.0998 34.6288C46.346 34.3827 46.4842 34.0489 46.4842 33.7008C46.4842 33.3527 46.3459 33.0189 46.0998 32.7728C45.8537 32.5267 45.5199 32.3884 45.1719 32.3884C44.8238 32.3884 44.49 32.5267 44.2439 32.7728L42.6149 34.4017C41.5626 33.6369 40.3444 33.1316 39.0597 32.927V30.6255C39.0597 30.2774 38.9214 29.9436 38.6753 29.6974C38.4291 29.4513 38.0953 29.313 37.7472 29.313C37.3991 29.313 37.0652 29.4513 36.8191 29.6974C36.573 29.9436 36.4347 30.2774 36.4347 30.6255V32.927C35.1501 33.1316 33.932 33.6368 32.8797 34.4015L31.2505 32.7728C31.0031 32.5329 30.6713 32.4 30.3267 32.4026C29.9821 32.4053 29.6523 32.5434 29.4087 32.787C29.165 33.0307 29.027 33.3604 29.0243 33.705C29.0217 34.0496 29.1547 34.3814 29.3946 34.6288L31.0237 36.2574C30.2588 37.3098 29.7534 38.5281 29.5487 39.813H27.2472C26.9024 39.818 26.5735 39.9585 26.3314 40.2041C26.0894 40.4497 25.9537 40.7807 25.9537 41.1255C25.9537 41.4703 26.0894 41.8013 26.3315 42.0469C26.5735 42.2925 26.9025 42.433 27.2472 42.438H29.5486C29.7533 43.7226 30.2586 44.9408 31.0233 45.9931L29.3945 47.6213C29.1492 47.8676 29.0116 48.2012 29.0119 48.5488C29.0123 48.8964 29.1505 49.2297 29.3963 49.4755C29.6421 49.7213 29.9754 49.8595 30.323 49.8599C30.6706 49.8602 31.0042 49.7226 31.2505 49.4773L32.8792 47.8491C33.9316 48.614 35.1499 49.1194 36.4347 49.324V51.6255C36.4397 51.9703 36.5802 52.2992 36.8258 52.5412C37.0714 52.7833 37.4024 52.9189 37.7472 52.9189C38.092 52.9189 38.423 52.7832 38.6686 52.5412C38.9142 52.2992 39.0546 51.9702 39.0597 51.6254V49.324C40.3446 49.1193 41.5629 48.6138 42.6154 47.8488L44.2439 49.4773C44.3657 49.5992 44.5104 49.6958 44.6696 49.7618C44.8289 49.8277 44.9995 49.8617 45.1719 49.8617C45.3442 49.8617 45.5148 49.8277 45.6741 49.7618C45.8333 49.6958 45.978 49.5992 46.0998 49.4773C46.2217 49.3554 46.3184 49.2108 46.3843 49.0515C46.4503 48.8923 46.4842 48.7217 46.4842 48.5493C46.4842 48.377 46.4503 48.2063 46.3843 48.0471C46.3184 47.8879 46.2217 47.7432 46.0998 47.6213L44.4713 45.9928C45.2359 44.9405 45.741 43.7225 45.9457 42.438H48.2472ZM37.7472 46.813C36.2393 46.8112 34.7937 46.2115 33.7274 45.1452C32.6612 44.079 32.0614 42.6334 32.0597 41.1255C32.3269 33.5981 43.1686 33.6 43.4347 41.1256C43.4329 42.6335 42.8331 44.0791 41.7669 45.1453C40.7007 46.2115 39.255 46.8112 37.7472 46.813Z" fill="black"/>
</svg>
