<svg width="28" height="30" viewBox="0 0 28 30" fill="none" xmlns="http://www.w3.org/2000/svg">
<path d="M16.6 6.84009C16.3946 6.84519 16.1903 6.80774 16 6.73009C15.795 6.62254 15.6188 6.46749 15.486 6.27788C15.3532 6.08828 15.2677 5.86965 15.2368 5.64026C15.2058 5.41087 15.2301 5.17739 15.3078 4.95935C15.3855 4.74131 15.5143 4.54503 15.6834 4.38694C15.8525 4.22885 16.0569 4.11354 16.2797 4.05065C16.5025 3.98775 16.7371 3.9791 16.9639 4.02542C17.1906 4.07174 17.403 4.17168 17.5833 4.31689C17.7636 4.4621 17.9065 4.64836 18 4.86009C18.1451 5.21587 18.1451 5.61431 18 5.97009C17.8837 6.24096 17.6872 6.46963 17.4368 6.62521C17.1864 6.78079 16.8944 6.8558 16.6 6.84009Z" fill="black"/>
<path d="M13.12 29.37C12.5047 29.3668 11.8962 29.2411 11.33 29L3.07 25.42C2.52703 25.1872 2.03548 24.8492 1.62365 24.4256C1.21181 24.002 0.88782 23.5012 0.67033 22.9519C0.45284 22.4026 0.346145 21.8157 0.356386 21.225C0.366627 20.6343 0.493603 20.0514 0.730004 19.51L6.73 5.69001C6.95974 5.15086 7.29348 4.66227 7.71215 4.25218C8.13082 3.84209 8.62621 3.51853 9.17 3.30001L15.09 1.00001C16.2001 0.563728 17.4379 0.584995 18.5324 1.05915C19.6269 1.53331 20.489 2.42174 20.93 3.53001L23.27 9.44001C23.4923 9.9893 23.6024 10.5775 23.5938 11.1701C23.5852 11.7626 23.4581 12.3474 23.22 12.89L17.22 26.7C16.7475 27.7959 15.859 28.6592 14.75 29.1C14.2275 29.2881 13.6752 29.3796 13.12 29.37ZM2.56 20.3C2.30117 20.9092 2.29244 21.5958 2.53569 22.2115C2.77895 22.8271 3.25465 23.3223 3.86 23.59L12.13 27.16C12.4306 27.2907 12.7541 27.3607 13.0819 27.366C13.4096 27.3714 13.7352 27.312 14.04 27.1912C14.3447 27.0704 14.6226 26.8906 14.8577 26.6622C15.0928 26.4338 15.2805 26.1611 15.41 25.86L21.41 12.04C21.6596 11.4278 21.6596 10.7422 21.41 10.13L19.07 4.21001C18.8251 3.59544 18.3466 3.103 17.7393 2.84059C17.132 2.57817 16.4454 2.56718 15.83 2.81001L9.91 5.15001C9.60389 5.27083 9.32502 5.45161 9.08975 5.68172C8.85449 5.91184 8.66758 6.18665 8.54 6.49001L2.56 20.3Z" fill="black"/>
<path d="M18.24 27.9999C17.7665 27.9981 17.2967 27.917 16.85 27.7599C16.6078 27.6645 16.4124 27.4784 16.3052 27.2411C16.1981 27.0039 16.1877 26.7342 16.2762 26.4894C16.3648 26.2446 16.5453 26.044 16.7794 25.9302C17.0135 25.8163 17.2828 25.7983 17.53 25.8799C18.0351 26.0612 18.5904 26.0431 19.0827 25.8295C19.575 25.6159 19.9674 25.2226 20.18 24.7299L25.5 12.3799C25.7102 11.8603 25.7102 11.2794 25.5 10.7599L23.44 5.4999C23.2543 5.02898 22.9062 4.64005 22.4587 4.40345C22.0112 4.16685 21.4938 4.09819 21 4.2099C20.7348 4.26559 20.4583 4.21365 20.2314 4.0655C20.0045 3.91734 19.8457 3.68512 19.79 3.4199C19.7343 3.15468 19.7863 2.8782 19.9344 2.65128C20.0826 2.42437 20.3148 2.26559 20.58 2.2099C21.5416 2.00126 22.5462 2.14367 23.4119 2.61139C24.2777 3.07911 24.9474 3.84124 25.3 4.7599L27.39 9.9999C27.5888 10.5028 27.6858 11.0402 27.6755 11.5809C27.6652 12.1216 27.5478 12.6549 27.33 13.1499L22 25.4799C21.6877 26.2211 21.1652 26.8547 20.4971 27.3025C19.8289 27.7503 19.0443 27.9927 18.24 27.9999Z" fill="black"/>
<path d="M15.1 11.8299C15.5731 12.1563 15.9393 12.6151 16.1527 13.1488C16.3662 13.6825 16.4174 14.2673 16.3 14.8299L13.86 14.5199C13.9621 14.331 14.0007 14.1143 13.9701 13.9018C13.9394 13.6893 13.8412 13.4923 13.69 13.3399C13.5881 13.2261 13.4616 13.1372 13.32 13.0799C13.1645 13.0032 12.9934 12.9633 12.82 12.9633C12.6466 12.9633 12.4755 13.0032 12.32 13.0799C12.2259 13.1291 12.1492 13.2058 12.1 13.2999C11.97 13.5899 12.1 13.9099 12.5 14.2999C12.725 14.5021 12.9658 14.686 13.22 14.8499C13.81 15.2519 14.336 15.7408 14.78 16.2999C15.0174 16.6497 15.1574 17.0564 15.1855 17.4782C15.2136 17.9 15.1289 18.3217 14.94 18.6999C14.7639 19.0714 14.4906 19.3883 14.1491 19.6171C13.8076 19.846 13.4105 19.9782 13 19.9999C12.5229 20.0745 12.0371 20.0745 11.56 19.9999L11.25 20.7199L8.99999 19.7199L9.31999 18.9899C8.94634 18.716 8.63534 18.3657 8.40773 17.9622C8.18012 17.5587 8.04112 17.1113 7.99999 16.6499C7.95996 16.3981 7.95996 16.1417 7.99999 15.8899L10.45 16.1999C10.3526 16.3993 10.3243 16.6254 10.3696 16.8427C10.4148 17.0599 10.5311 17.256 10.7 17.3999C10.8432 17.5444 11.013 17.6598 11.2 17.7399C11.3876 17.8491 11.5973 17.9147 11.8136 17.932C12.03 17.9493 12.2474 17.9178 12.45 17.8399C12.5366 17.8016 12.6073 17.7344 12.65 17.6499C12.78 17.3399 12.65 17.0099 12.27 16.6499L11.17 15.8099C10.4916 15.3773 9.96402 14.7449 9.65999 13.9999C9.50071 13.4163 9.55753 12.7949 9.81999 12.2499C9.99006 11.8856 10.25 11.5705 10.5754 11.3344C10.9008 11.0982 11.2809 10.9487 11.68 10.8999C12.062 10.8547 12.448 10.8547 12.83 10.8999L13.16 10.1499L15.4 11.1499L15.1 11.8299Z" fill="black"/>
</svg>
