<svg width="32" height="32" viewBox="0 0 32 32" fill="none" xmlns="http://www.w3.org/2000/svg">
<path d="M16 0C12.8355 0 9.74207 0.938384 7.11088 2.69649C4.4797 4.45459 2.42894 6.95345 1.21793 9.87707C0.00693258 12.8007 -0.309921 16.0177 0.307443 19.1214C0.924806 22.2251 2.44866 25.0761 4.6863 27.3137C6.92394 29.5514 9.77487 31.0752 12.8786 31.6926C15.9823 32.3099 19.1993 31.9931 22.1229 30.7821C25.0466 29.5711 27.5454 27.5203 29.3035 24.8891C31.0616 22.2579 32 19.1645 32 16C32 11.7565 30.3143 7.68687 27.3137 4.68629C24.3131 1.68571 20.2435 0 16 0ZM16 30.6667C13.0992 30.6667 10.2636 29.8065 7.85164 28.1949C5.43972 26.5833 3.55986 24.2927 2.44977 21.6127C1.33969 18.9327 1.04924 15.9837 1.61516 13.1387C2.18107 10.2936 3.57794 7.68027 5.62911 5.6291C7.68028 3.57793 10.2936 2.18107 13.1387 1.61515C15.9837 1.04923 18.9327 1.33968 21.6127 2.44977C24.2927 3.55985 26.5833 5.43972 28.1949 7.85164C29.8065 10.2636 30.6667 13.0992 30.6667 16C30.6667 19.8898 29.1214 23.6204 26.3709 26.3709C23.6204 29.1214 19.8899 30.6667 16 30.6667Z" fill="black"/>
<path d="M16 2.66675C13.3629 2.66675 10.7851 3.44873 8.59242 4.91382C6.39977 6.37891 4.6908 8.46129 3.68163 10.8976C2.67246 13.334 2.40842 16.0149 2.92289 18.6013C3.43736 21.1877 4.70724 23.5635 6.57194 25.4282C8.43664 27.2929 10.8124 28.5627 13.3988 29.0772C15.9852 29.5917 18.6661 29.3276 21.1025 28.3185C23.5388 27.3093 25.6212 25.6003 27.0863 23.4077C28.5514 21.215 29.3334 18.6372 29.3334 16.0001C29.3334 14.2491 28.9885 12.5153 28.3184 10.8976C27.6484 9.27996 26.6662 7.81011 25.4281 6.57199C24.19 5.33388 22.7201 4.35175 21.1025 3.68169C19.4848 3.01162 17.751 2.66675 16 2.66675ZM16.6667 28.0001V26.6667C16.6667 26.4899 16.5965 26.3204 16.4714 26.1953C16.3464 26.0703 16.1768 26.0001 16 26.0001C15.8232 26.0001 15.6536 26.0703 15.5286 26.1953C15.4036 26.3204 15.3334 26.4899 15.3334 26.6667V28.0001C12.3854 27.8321 9.60292 26.5832 7.51812 24.4923C5.43333 22.4013 4.19262 19.6152 4.03336 16.6667H5.33336C5.51017 16.6667 5.67974 16.5965 5.80476 16.4715C5.92979 16.3465 6.00003 16.1769 6.00003 16.0001C6.00003 15.8233 5.92979 15.6537 5.80476 15.5287C5.67974 15.4037 5.51017 15.3334 5.33336 15.3334H4.03336C4.20054 12.3909 5.44474 9.61283 7.52876 7.52881C9.61278 5.44479 12.3909 4.20059 15.3334 4.03341V5.33341C15.3334 5.51023 15.4036 5.6798 15.5286 5.80482C15.6536 5.92984 15.8232 6.00008 16 6.00008C16.1768 6.00008 16.3464 5.92984 16.4714 5.80482C16.5965 5.6798 16.6667 5.51023 16.6667 5.33341V4.03341C19.6151 4.19267 22.4013 5.43338 24.4922 7.51818C26.5832 9.60298 27.8321 12.3855 28 15.3334H26.6667C26.4899 15.3334 26.3203 15.4037 26.1953 15.5287C26.0703 15.6537 26 15.8233 26 16.0001C26 16.1769 26.0703 16.3465 26.1953 16.4715C26.3203 16.5965 26.4899 16.6667 26.6667 16.6667H28C27.84 19.6206 26.5946 22.4112 24.5029 24.5029C22.4111 26.5947 19.6205 27.8401 16.6667 28.0001Z" fill="black"/>
<path d="M21.3333 9.74667C13.14 13.8467 13.6333 13.5333 13.4933 13.8133L9.74667 21.3333C9.66556 21.4613 9.63045 21.613 9.64711 21.7636C9.66377 21.9142 9.73121 22.0546 9.83833 22.1617C9.94544 22.2688 10.0858 22.3362 10.2364 22.3529C10.387 22.3696 10.5387 22.3344 10.6667 22.2533C18.86 18.1533 18.3667 18.4667 18.5067 18.1867L22.2533 10.6667C22.3344 10.5387 22.3696 10.387 22.3529 10.2364C22.3362 10.0858 22.2688 9.94544 22.1617 9.83833C22.0546 9.73121 21.9142 9.66377 21.7636 9.64711C21.613 9.63045 21.4613 9.66556 21.3333 9.74667ZM17.3333 17.3867L11.78 20.1667L14.56 14.6133L20.1133 11.8333L17.3333 17.3867Z" fill="black"/>
<path d="M16 16.6666C16.1768 16.6666 16.3464 16.5963 16.4714 16.4713C16.5964 16.3463 16.6666 16.1767 16.6666 15.9999C16.6666 15.8681 16.6275 15.7392 16.5543 15.6295C16.481 15.5199 16.3769 15.4345 16.2551 15.384C16.1333 15.3335 15.9992 15.3203 15.8699 15.3461C15.7406 15.3718 15.6218 15.4353 15.5286 15.5285C15.4353 15.6217 15.3718 15.7405 15.3461 15.8699C15.3204 15.9992 15.3336 16.1332 15.3841 16.255C15.4345 16.3769 15.52 16.481 15.6296 16.5542C15.7392 16.6275 15.8681 16.6666 16 16.6666Z" fill="black"/>
</svg>
