<svg width="32" height="31" viewBox="0 0 32 31" fill="none" xmlns="http://www.w3.org/2000/svg">
<path d="M26.4416 8.44011C26.3508 8.50377 26.2734 8.58479 26.214 8.67851C26.1547 8.77222 26.1145 8.87676 26.0957 8.9861C26.077 9.09543 26.0801 9.2074 26.1048 9.31553C26.1296 9.42367 26.1755 9.52582 26.24 9.61611C27.3627 11.5548 27.943 13.7599 27.92 16.0001C27.92 18.4922 27.181 20.9282 25.7965 23.0003C24.412 25.0724 22.4442 26.6873 20.1418 27.641C17.8395 28.5947 15.306 28.8442 12.8619 28.358C10.4177 27.8718 8.17259 26.6718 6.41045 24.9097C4.64831 23.1475 3.44828 20.9024 2.9621 18.4582C2.47593 16.0141 2.72545 13.4806 3.67912 11.1783C4.63278 8.87595 6.24775 6.9081 8.31981 5.52359C10.3919 4.13909 12.828 3.40011 15.32 3.40011C17.5602 3.37707 19.7653 3.95736 21.704 5.08011C21.8954 5.18916 22.1219 5.21868 22.3348 5.16232C22.5478 5.10595 22.73 4.96821 22.8424 4.77875C22.9547 4.5893 22.9882 4.3633 22.9355 4.14942C22.8828 3.93555 22.7483 3.75092 22.5608 3.63531C19.5572 1.85896 16.0086 1.23963 12.5808 1.89351C9.153 2.5474 6.08159 4.42956 3.94279 7.18688C1.80399 9.9442 0.74479 13.3872 0.963903 16.8699C1.18302 20.3526 2.66539 23.6357 5.1329 26.1032C7.60042 28.5707 10.8835 30.0531 14.3662 30.2722C17.8489 30.4913 21.2919 29.4321 24.0492 27.2933C26.8066 25.1545 28.6887 22.0831 29.3426 18.6553C29.9965 15.2275 29.3771 11.679 27.6008 8.67531C27.4776 8.49117 27.2867 8.36314 27.0696 8.31909C26.8525 8.27504 26.6268 8.31854 26.4416 8.44011Z" fill="black"/>
<path d="M15.32 10.12C15.8363 10.1184 16.3505 10.1862 16.8488 10.3216C17.0716 10.3795 17.3083 10.3465 17.5067 10.23C17.7052 10.1134 17.8493 9.92274 17.9072 9.69996C17.9651 9.47718 17.9322 9.24051 17.8156 9.04203C17.699 8.84354 17.5084 8.69949 17.2856 8.64156C16.6422 8.48769 15.9812 8.4199 15.32 8.43996C13.8248 8.43996 12.3631 8.88335 11.1199 9.71405C9.87667 10.5448 8.90768 11.7255 8.33548 13.1069C7.76329 14.4883 7.61357 16.0083 7.90528 17.4748C8.19698 18.9413 8.917 20.2884 9.97429 21.3457C11.0316 22.403 12.3786 23.123 13.8451 23.4147C15.3116 23.7064 16.8317 23.5567 18.2131 22.9845C19.5945 22.4123 20.7752 21.4433 21.6059 20.2001C22.4366 18.9568 22.88 17.4952 22.88 16C22.8781 15.3357 22.7877 14.6747 22.6112 14.0344C22.5825 13.9241 22.5324 13.8205 22.4637 13.7295C22.395 13.6386 22.309 13.5621 22.2107 13.5044C22.1125 13.4466 22.0038 13.4088 21.8909 13.3931C21.778 13.3774 21.6631 13.3841 21.5528 13.4128C21.4425 13.4414 21.3389 13.4916 21.248 13.5603C21.157 13.629 21.0805 13.7149 21.0228 13.8132C20.9651 13.9115 20.9273 14.0202 20.9116 14.1331C20.8959 14.246 20.9025 14.3609 20.9312 14.4712C21.0666 14.9694 21.1344 15.4836 21.1328 16C21.1327 17.1658 20.7861 18.3052 20.137 19.2736C19.4879 20.242 18.5655 20.9955 17.4872 21.4385C16.4088 21.8815 15.2231 21.994 14.0807 21.7616C12.9383 21.5292 11.8908 20.9625 11.0712 20.1334C10.2516 19.3043 9.69696 18.2503 9.47772 17.1053C9.25849 15.9603 9.38456 14.776 9.83993 13.7028C10.2953 12.6296 11.0594 11.716 12.0352 11.0781C13.0109 10.4401 14.1543 10.1066 15.32 10.12Z" fill="black"/>
<path d="M30.44 3.40004H27.92V0.880039C27.92 0.657257 27.8315 0.4436 27.674 0.28607C27.5165 0.128539 27.3028 0.0400391 27.08 0.0400391C26.8572 0.0400391 26.6436 0.128539 26.4861 0.28607C26.3285 0.4436 26.24 0.657257 26.24 0.880039V3.88724L14.732 15.3952C14.6537 15.4736 14.5916 15.5665 14.5492 15.6689C14.5068 15.7712 14.485 15.8809 14.485 15.9916C14.485 16.1024 14.5068 16.2121 14.5492 16.3144C14.5916 16.4167 14.6537 16.5097 14.732 16.588C14.8103 16.6664 14.9033 16.7285 15.0057 16.7709C15.108 16.8133 15.2177 16.8351 15.3284 16.8351C15.4392 16.8351 15.5489 16.8133 15.6512 16.7709C15.7535 16.7285 15.8465 16.6664 15.9248 16.588L27.4328 5.08004H30.44C30.6628 5.08004 30.8765 4.99154 31.034 4.83401C31.1915 4.67648 31.28 4.46282 31.28 4.24004C31.28 4.01726 31.1915 3.8036 31.034 3.64607C30.8765 3.48854 30.6628 3.40004 30.44 3.40004Z" fill="black"/>
</svg>
