<svg width="32" height="32" viewBox="0 0 32 32" fill="none" xmlns="http://www.w3.org/2000/svg">
<path d="M30.7936 0.0401414L3.73219 8.10233C3.35845 8.2137 3.09265 8.54481 3.06478 8.93386C3.03697 9.3229 3.2529 9.68851 3.60701 9.85188L11.9727 13.713L10.0938 20.7587C9.93513 21.3536 10.3843 21.9377 10.9997 21.9377C11.1758 21.9377 10.5815 22.082 18.2869 20.0272L22.148 28.3928C22.302 28.7264 22.6354 28.9374 22.9988 28.9374C23.4155 28.9374 23.7796 28.6635 23.8976 28.2676L31.9598 1.20616C32.1726 0.491624 31.5049 -0.171975 30.7936 0.0401414ZM27.7798 2.8944L16.7987 13.8755L6.64745 9.19022L27.7798 2.8944ZM12.3226 19.6772L13.7004 14.5105L16.2929 15.707L17.4894 18.2994L12.3226 19.6772ZM22.8097 25.3525L18.1245 15.2012L29.1055 4.22017L22.8097 25.3525Z" fill="#FFECEC"/>
<path d="M8.16265 23.8371C7.7966 23.471 7.203 23.471 6.83689 23.8371L1.83708 28.8369C1.47097 29.203 1.47097 29.7965 1.83708 30.1626C2.20313 30.5288 2.79673 30.5288 3.16284 30.1626L8.16265 25.1628C8.52876 24.7967 8.52876 24.2032 8.16265 23.8371Z" fill="#FFECEC"/>
<path d="M6.16279 21.1628C6.5289 20.7967 6.5289 20.2032 6.16279 19.8371C5.79674 19.471 5.20314 19.471 4.83703 19.8371L0.274705 24.3994C-0.0914056 24.7655 -0.0914056 25.3591 0.274705 25.7252C0.640753 26.0913 1.23436 26.0913 1.60047 25.7252L6.16279 21.1628Z" fill="#FFECEC"/>
<path d="M10.8368 25.8371L6.27446 30.3994C5.90835 30.7655 5.90835 31.3591 6.27446 31.7252C6.64051 32.0913 7.23411 32.0913 7.60022 31.7252L12.1625 27.1628C12.5287 26.7967 12.5287 26.2032 12.1625 25.8371C11.7964 25.471 11.2028 25.471 10.8368 25.8371Z" fill="#FFECEC"/>
</svg>
