<svg width="22" height="22" viewBox="0 0 22 22" fill="none" xmlns="http://www.w3.org/2000/svg">
<path fill-rule="evenodd" clip-rule="evenodd" d="M12.7682 6.67896C13.4182 6.67896 14.0754 6.92554 14.575 7.42512C15.0746 7.92471 15.3212 8.58196 15.3212 9.23187C15.3212 9.61137 15.6292 9.91937 16.0087 9.91937C16.3882 9.91937 16.6962 9.61137 16.6962 9.23187C16.6962 8.23179 16.3167 7.22162 15.5476 6.45254C14.7785 5.68437 13.7683 5.30396 12.7682 5.30396C12.3887 5.30396 12.0807 5.61196 12.0807 5.99146C12.0807 6.37096 12.3887 6.67896 12.7682 6.67896Z" fill="black"/>
<path fill-rule="evenodd" clip-rule="evenodd" d="M12.771 3.43757C14.2533 3.43116 15.7346 3.99857 16.8685 5.13157C18.0015 6.26549 18.5689 7.74682 18.5625 9.22907C18.5607 9.60857 18.8678 9.91749 19.2463 9.91932C19.6258 9.92116 19.9357 9.61499 19.9375 9.23549C19.9458 7.39941 19.2445 5.56332 17.8402 4.15991C16.4368 2.75557 14.6007 2.05432 12.7646 2.06257C12.3851 2.06441 12.0789 2.37424 12.0808 2.75374C12.0826 3.13232 12.3915 3.43941 12.771 3.43757Z" fill="black"/>
<path fill-rule="evenodd" clip-rule="evenodd" d="M11.6673 16.1196C11.8424 16.2241 12.0652 16.2076 12.2228 16.0765C12.7178 15.664 13.7995 14.7629 14.4091 14.2551C14.6777 14.0314 15.0471 13.9709 15.3725 14.0983C16.7952 14.6438 18.2188 14.9132 19.6414 14.9023C19.899 14.8968 20.1474 14.9948 20.3317 15.1745C20.5159 15.3551 20.6195 15.6007 20.6195 15.8583C20.625 16.9217 20.625 18.5827 20.625 19.6084C20.625 20.119 20.2253 20.5407 19.7157 20.5691C19.217 20.5966 18.7 20.625 18.7 20.625C9.13825 20.625 1.375 12.8617 1.375 3.3C1.375 3.3 1.40342 2.783 1.43092 2.28433C1.45933 1.77467 1.881 1.375 2.39158 1.375H6.17558C6.70358 1.375 7.13258 1.80125 7.13717 2.32925C7.16467 3.76658 7.43875 5.20392 7.92917 6.64125C8.04008 6.95933 7.975 7.31225 7.75958 7.57075C7.25633 8.17758 6.34058 9.27667 5.9235 9.77717C5.7915 9.93392 5.77408 10.1576 5.8795 10.3336C7.32875 12.7261 9.27392 14.6712 11.6673 16.1196Z" fill="black"/>
</svg>
