<svg width="34" height="34" viewBox="0 0 34 34" fill="none" xmlns="http://www.w3.org/2000/svg">
<path d="M29.2876 14.0545H29.2034V11.9926C29.2034 5.36926 23.8343 0 17.2109 0C10.5875 0 5.2183 5.36926 5.2183 11.9926V14.0545H4.71338C2.86188 14.0545 1.43121 15.6955 1.43121 17.5891V22.849C1.38457 24.6843 2.83466 26.21 4.66997 26.2566C4.68447 26.257 4.69889 26.2572 4.71338 26.2574H7.82723C8.26827 26.2367 8.60905 25.8623 8.58827 25.4212C8.58754 25.4053 8.58634 25.3895 8.58464 25.3737V15.0643C8.58464 14.5594 8.2901 14.0544 7.82723 14.0544H6.90147V11.9925C6.90147 6.2988 11.5172 1.68309 17.2109 1.68309C22.9046 1.68309 27.5203 6.2988 27.5203 11.9925V14.0544H26.5945C26.1316 14.0544 25.8371 14.5593 25.8371 15.0643V25.3737C25.7901 25.8127 26.108 26.2067 26.547 26.2537C26.5628 26.2554 26.5787 26.2566 26.5945 26.2573H27.5623L27.4782 26.3835C26.2155 28.0616 24.2342 29.0445 22.1341 29.0345C21.6744 26.7802 19.4741 25.3254 17.2198 25.7852C15.292 26.1783 13.9021 27.8666 13.8866 29.834C13.9096 32.1416 15.7869 34 18.0945 33.9998C19.2368 33.9813 20.3257 33.5126 21.1242 32.6954C21.6629 32.1437 22.0159 31.4375 22.1341 30.6755C24.764 30.6855 27.2441 29.4532 28.8247 27.3513L29.6242 26.1731C31.4336 26.0469 32.5697 24.9107 32.5697 23.2696V18.0097C32.5698 16.2005 31.2233 14.0545 29.2876 14.0545ZM6.90147 24.5742H4.71338C3.80728 24.5522 3.09062 23.7998 3.11269 22.8937C3.11309 22.8788 3.11365 22.8639 3.11438 22.8489V17.589C3.11438 16.6212 3.78763 15.7375 4.71338 15.7375H6.90147V24.5742ZM19.904 31.5173C19.4376 32.0229 18.7824 32.3125 18.0946 32.3168C16.7255 32.2951 15.6145 31.2026 15.5698 29.8341C15.5693 28.463 16.6803 27.351 18.0515 27.3504C19.4226 27.3499 20.5346 28.4609 20.5352 29.8321C20.5352 29.8327 20.5352 29.8335 20.5352 29.8341C20.5702 30.4589 20.3411 31.0696 19.904 31.5173ZM30.8866 23.2698C30.8866 24.4059 29.7925 24.5742 29.2876 24.5742H27.5203V15.7376H29.2876C30.2134 15.7376 30.8866 17.0421 30.8866 18.0099V23.2698Z" fill="black"/>
</svg>
