<svg width="68" height="68" viewBox="0 0 68 68" fill="none" xmlns="http://www.w3.org/2000/svg">
<path d="M36.6055 34.9414H31.3955C30.9727 34.9414 30.5952 34.6758 30.4536 34.2773L29.7725 32.3652L26.8037 31.1357L24.9746 32.0049C24.5908 32.1865 24.1367 32.1074 23.8384 31.8086L20.1582 28.1289C19.8589 27.8301 19.7803 27.375 19.9619 26.9922L20.8315 25.1631L19.6016 22.1943L17.6899 21.5137C17.2915 21.3711 17.0254 20.9941 17.0254 20.5713V15.3613C17.0254 14.9365 17.2935 14.5586 17.6938 14.418L19.6021 13.7471L20.8311 10.7705L19.9629 8.95215C19.7803 8.57031 19.8584 8.11426 20.1582 7.81445L23.8384 4.125C24.1367 3.82715 24.5913 3.74609 24.9746 3.92871L26.8057 4.79883C27.8184 4.38477 28.5024 4.09863 29.4434 3.70605L29.7729 3.56836L30.4541 1.66504C30.5962 1.26758 30.9731 1.00195 31.3955 1.00195H36.6055C37.0278 1.00195 37.4048 1.26758 37.5469 1.66504L38.228 3.56836L38.5073 3.68457C39.4741 4.08887 40.1646 4.37695 41.1953 4.79883L43.0264 3.92871C43.4106 3.74512 43.8657 3.82617 44.1646 4.12695C45.9102 5.88184 45.9985 5.9707 47.603 7.5752L47.8423 7.81445C48.1421 8.11426 48.2202 8.57031 48.0376 8.95215L47.1694 10.7705L48.3994 13.748L50.2983 14.418C50.6982 14.5596 50.9653 14.9375 50.9653 15.3613V20.5713C50.9653 20.9941 50.6997 21.3701 50.3022 21.5127L48.3994 22.1934L47.1689 25.1631L48.0386 26.9922C48.2202 27.375 48.1416 27.8301 47.8423 28.1289L46.3306 29.6387C45.729 30.2373 45.2939 30.6709 44.1646 31.8066C43.8657 32.1074 43.4106 32.1885 43.0264 32.0049L41.1973 31.1357L38.2285 32.3652L37.5474 34.2773C37.4058 34.6758 37.0283 34.9414 36.6055 34.9414ZM32.1006 32.9414H35.9004L36.4937 31.2754C36.5879 31.0098 36.7905 30.7969 37.0503 30.6885L40.8428 29.1182C41.104 29.0098 41.3989 29.0176 41.6548 29.1387L43.2456 29.8945C44.0249 29.1123 44.4131 28.7256 44.9185 28.2217L45.9287 27.2129L45.1719 25.6211C45.0503 25.3652 45.043 25.0693 45.1514 24.8086L46.7227 21.0166C46.8311 20.7568 47.0435 20.5547 47.3086 20.46L48.9653 19.8672V16.0684L47.3125 15.4854C47.0444 15.3906 46.8296 15.1865 46.7212 14.9238L45.1509 11.123C45.043 10.8613 45.0508 10.5654 45.1729 10.3105L45.9282 8.72852C44.7188 7.51953 44.4478 7.24805 43.2456 6.03906L41.6548 6.79492C41.4009 6.91602 41.1089 6.92383 40.8477 6.81738C39.5728 6.29785 38.8311 5.9873 37.7363 5.53027L37.0503 5.24414C36.791 5.13574 36.5889 4.92285 36.4941 4.6582L35.9014 3.00195H32.0996L31.5068 4.6582C31.4121 4.92285 31.21 5.13574 30.9502 5.24414L30.2139 5.55176C29.1465 5.99707 28.4082 6.30566 27.1533 6.81738C26.8916 6.92383 26.5996 6.91602 26.3462 6.79492L24.7544 6.03809L22.0718 8.72754L22.8276 10.3105C22.9497 10.5664 22.9575 10.8623 22.8491 11.124L21.2793 14.9248C21.1704 15.1875 20.9551 15.3906 20.687 15.4854L19.0254 16.0693V19.8662L20.6909 20.459C20.9565 20.5537 21.1699 20.7559 21.2783 21.0166L22.8491 24.8086C22.9575 25.0703 22.9502 25.3652 22.8286 25.6211L22.0713 27.2139L24.7534 29.8955L26.3462 29.1387C26.6016 29.0166 26.8965 29.0098 27.1582 29.1182L30.9502 30.6885C31.2104 30.7969 31.4126 31.0098 31.5073 31.2754L32.1006 32.9414Z" fill="black"/>
<path d="M33.9966 27.6562C28.6558 27.6562 24.3105 23.3115 24.3105 17.9707C24.3105 12.625 28.6558 8.27637 33.9966 8.27637C39.3418 8.27637 43.6904 12.625 43.6904 17.9707C43.6904 23.3115 39.3418 27.6562 33.9966 27.6562ZM33.9966 10.2764C29.7583 10.2764 26.3105 13.7285 26.3105 17.9707C26.3105 22.209 29.7583 25.6562 33.9966 25.6562C38.2388 25.6562 41.6904 22.209 41.6904 17.9707C41.6904 13.7285 38.2388 10.2764 33.9966 10.2764Z" fill="black"/>
<path d="M32.7227 21.4004C32.4668 21.4004 32.2109 21.3027 32.0156 21.1074L29.7041 18.7959C29.3135 18.4053 29.3135 17.7725 29.7041 17.3818C30.0947 16.9912 30.7275 16.9912 31.1182 17.3818L32.7227 18.9863L36.8823 14.8271C37.2729 14.4365 37.9058 14.4365 38.2964 14.8271C38.687 15.2178 38.687 15.8506 38.2964 16.2412L33.4297 21.1074C33.2344 21.3027 32.9785 21.4004 32.7227 21.4004Z" fill="black"/>
<path d="M66 58.998H47.335C46.7827 58.998 46.335 58.5508 46.335 57.998V52.3125C46.335 51.2012 46.9316 49.665 49.7749 48.6621C51.4736 48.0635 53.7837 47.7334 56.2808 47.7334C61.6162 47.7334 67 49.1494 67 52.3125V57.998C67 58.5508 66.5522 58.998 66 58.998ZM48.335 56.998H65V52.3125C65 51.0947 61.271 49.7334 56.2808 49.7334C54.0044 49.7334 51.9302 50.0234 50.4404 50.5488C49.6538 50.8262 48.335 51.4238 48.335 52.3125V56.998Z" fill="black"/>
<path d="M56.6675 46.7334C53.7251 46.7334 51.2393 43.5117 51.2393 39.6982C51.2393 35.3662 54.0435 33.8223 56.6675 33.8223C59.2915 33.8223 62.0957 35.3662 62.0957 39.6982C62.0957 43.5117 59.6099 46.7334 56.6675 46.7334ZM56.6675 35.8223C54.4565 35.8223 53.2393 37.1992 53.2393 39.6982C53.2393 42.333 54.873 44.7334 56.6675 44.7334C58.4619 44.7334 60.0957 42.333 60.0957 39.6982C60.0957 37.1992 58.8784 35.8223 56.6675 35.8223Z" fill="black"/>
<path d="M43.3325 66.998H24.6675C24.1152 66.998 23.6675 66.5508 23.6675 65.998V60.3125C23.6675 59.2012 24.2642 57.665 27.1074 56.6621C28.8062 56.0635 31.1162 55.7334 33.6133 55.7334C38.9487 55.7334 44.3325 57.1494 44.3325 60.3125V65.998C44.3325 66.5508 43.8848 66.998 43.3325 66.998ZM25.6675 64.998H42.3325V60.3125C42.3325 59.0947 38.6035 57.7334 33.6133 57.7334C31.3369 57.7334 29.2627 58.0234 27.7729 58.5488C26.9863 58.8262 25.6675 59.4238 25.6675 60.3125V64.998Z" fill="black"/>
<path d="M34 54.7334C31.0576 54.7334 28.5718 51.5117 28.5718 47.6982C28.5718 43.3662 31.376 41.8223 34 41.8223C36.624 41.8223 39.4282 43.3662 39.4282 47.6982C39.4282 51.5117 36.9424 54.7334 34 54.7334ZM34 43.8223C31.7891 43.8223 30.5718 45.1992 30.5718 47.6982C30.5718 50.333 32.2056 52.7334 34 52.7334C35.7944 52.7334 37.4282 50.333 37.4282 47.6982C37.4282 45.1992 36.2109 43.8223 34 43.8223Z" fill="black"/>
<path d="M20.665 58.998H2C1.44775 58.998 1 58.5508 1 57.998V52.3125C1 51.2012 1.59668 49.665 4.43994 48.6621C6.13867 48.0635 8.44873 47.7334 10.9458 47.7334C16.2812 47.7334 21.665 49.1494 21.665 52.3125V57.998C21.665 58.5508 21.2173 58.998 20.665 58.998ZM3 56.998H19.665V52.3125C19.665 51.0947 15.936 49.7334 10.9458 49.7334C8.66943 49.7334 6.59521 50.0234 5.10547 50.5488C4.31885 50.8262 3 51.4238 3 52.3125V56.998Z" fill="black"/>
<path d="M11.3325 46.7334C8.39014 46.7334 5.9043 43.5117 5.9043 39.6982C5.9043 35.3662 8.7085 33.8223 11.3325 33.8223C13.9565 33.8223 16.7607 35.3662 16.7607 39.6982C16.7607 43.5117 14.2749 46.7334 11.3325 46.7334ZM11.3325 35.8223C9.12158 35.8223 7.9043 37.1992 7.9043 39.6982C7.9043 42.333 9.53809 44.7334 11.3325 44.7334C13.127 44.7334 14.7607 42.333 14.7607 39.6982C14.7607 37.1992 13.5435 35.8223 11.3325 35.8223Z" fill="black"/>
<path d="M15.0049 37.6609C14.7461 37.6609 14.4878 37.5613 14.292 37.3621C13.9048 36.9685 13.9096 36.3357 14.3032 35.948L19.373 30.9588C19.7671 30.573 20.4004 30.5769 20.7876 30.9705C21.1748 31.364 21.1699 31.9969 20.7763 32.3846L15.7065 37.3738C15.5117 37.5652 15.2583 37.6609 15.0049 37.6609Z" fill="black"/>
<path d="M33.9956 43.8213C33.4434 43.8213 32.9956 43.374 32.9956 42.8213V33.9414C32.9956 33.3887 33.4434 32.9414 33.9956 32.9414C34.5479 32.9414 34.9956 33.3887 34.9956 33.9414V42.8213C34.9956 43.374 34.5479 43.8213 33.9956 43.8213Z" fill="black"/>
<path d="M52.9356 37.7616C52.6812 37.7616 52.4263 37.6649 52.2315 37.4716L47.1011 32.3817C46.709 31.993 46.7061 31.3593 47.0952 30.9677C47.4839 30.5741 48.1177 30.5731 48.5093 30.9618L53.6397 36.0516C54.0317 36.4403 54.0347 37.0741 53.6455 37.4657C53.4502 37.663 53.1929 37.7616 52.9356 37.7616Z" fill="black"/>
</svg>
