<svg width="20" height="20" viewBox="0 0 20 20" fill="none" xmlns="http://www.w3.org/2000/svg">
<path fill-rule="evenodd" clip-rule="evenodd" d="M11.7682 5.67896C12.4182 5.67896 13.0754 5.92554 13.575 6.42512C14.0746 6.92471 14.3212 7.58196 14.3212 8.23187C14.3212 8.61137 14.6292 8.91937 15.0087 8.91937C15.3882 8.91937 15.6962 8.61137 15.6962 8.23187C15.6962 7.23179 15.3167 6.22162 14.5476 5.45254C13.7785 4.68437 12.7683 4.30396 11.7682 4.30396C11.3887 4.30396 11.0807 4.61196 11.0807 4.99146C11.0807 5.37096 11.3887 5.67896 11.7682 5.67896Z" fill="black"/>
<path fill-rule="evenodd" clip-rule="evenodd" d="M11.771 2.43757C13.2533 2.43116 14.7346 2.99857 15.8685 4.13157C17.0015 5.26549 17.5689 6.74682 17.5625 8.22907C17.5607 8.60857 17.8678 8.91749 18.2463 8.91932C18.6258 8.92116 18.9357 8.61499 18.9375 8.23549C18.9458 6.39941 18.2445 4.56332 16.8402 3.15991C15.4368 1.75557 13.6007 1.05432 11.7646 1.06257C11.3851 1.06441 11.0789 1.37424 11.0808 1.75374C11.0826 2.13232 11.3915 2.43941 11.771 2.43757Z" fill="black"/>
<path fill-rule="evenodd" clip-rule="evenodd" d="M10.6673 15.1196C10.8424 15.2241 11.0652 15.2076 11.2228 15.0765C11.7178 14.664 12.7995 13.7629 13.4091 13.2551C13.6777 13.0314 14.0471 12.9709 14.3725 13.0983C15.7952 13.6438 17.2188 13.9132 18.6414 13.9023C18.899 13.8968 19.1474 13.9948 19.3317 14.1745C19.5159 14.3551 19.6195 14.6007 19.6195 14.8583C19.625 15.9217 19.625 17.5827 19.625 18.6084C19.625 19.119 19.2253 19.5407 18.7157 19.5691C18.217 19.5966 17.7 19.625 17.7 19.625C8.13825 19.625 0.375 11.8617 0.375 2.3C0.375 2.3 0.403417 1.783 0.430917 1.28433C0.459333 0.774667 0.881 0.375 1.39158 0.375H5.17558C5.70358 0.375 6.13258 0.80125 6.13717 1.32925C6.16467 2.76658 6.43875 4.20392 6.92917 5.64125C7.04008 5.95933 6.975 6.31225 6.75958 6.57075C6.25633 7.17758 5.34058 8.27667 4.9235 8.77717C4.7915 8.93392 4.77408 9.15758 4.8795 9.33358C6.32875 11.7261 8.27392 13.6712 10.6673 15.1196Z" fill="black"/>
</svg>
